<svg width="32" height="31" viewBox="0 0 32 31" fill="none" xmlns="http://www.w3.org/2000/svg">
<path d="M17.1651 0.446037L17.216 0.496927L31.771 15.0519C32.0763 15.3573 32.0763 15.8153 31.771 16.1207C31.5165 16.3751 31.0585 16.426 30.7532 16.1715L30.7023 16.1207L28.9719 14.3903V29.6069C28.9719 30.1667 28.5139 30.6248 27.9541 30.6248H3.52614C2.96633 30.6248 2.50831 30.1667 2.50831 29.6069V14.8993L1.28691 16.1207C0.98156 16.426 0.523535 16.426 0.218185 16.1207C-0.0362727 15.8662 -0.0871645 15.4082 0.167294 15.1028L0.218185 15.0519L14.7223 0.547819C15.3839 -0.164663 16.5035 -0.164663 17.1651 0.446037ZM15.8419 1.56565L4.03506 13.3725V29.098H11.1599V18.9197C11.1599 18.3599 11.6179 17.9019 12.1777 17.9019H19.8115C20.3713 17.9019 20.8293 18.3599 20.8293 18.9197V29.098H27.4452V12.8636L16.1982 1.61654C16.0964 1.51476 15.9437 1.51476 15.8419 1.56565ZM19.3025 19.4286H12.6866V29.098H19.3025V19.4286Z" />
</svg>
