<svg width="32" height="33" viewBox="0 0 32 33" fill="none" xmlns="http://www.w3.org/2000/svg">
<path d="M32 16.0045C32 7.12929 24.798 0 15.9955 0C11.7033 0 7.62947 1.74595 4.64681 4.80136C4.64681 4.80136 4.64681 4.80136 4.57406 4.80136V4.87411C-1.53676 11.0577 -1.53676 21.0969 4.64681 27.2804V27.3532H4.71956C10.9031 33.5368 20.8696 33.6095 27.1259 27.4987H27.1986C27.1986 27.4987 27.1986 27.4987 27.1986 27.4259C30.2541 24.3705 32 20.2966 32 16.0045ZM26.6894 25.8255L21.5243 20.6604C23.7795 17.9687 23.8522 14.0403 21.5971 11.3487L26.7622 6.18357C31.8545 11.8579 31.7818 20.3694 26.6894 25.8255ZM11.9216 20.1512C9.73916 17.8232 9.81191 14.1131 12.1398 11.9306C14.395 9.82096 17.8869 9.82096 20.1421 11.9306C22.3245 14.2586 22.2518 17.9687 19.9239 20.1512C17.6687 22.2608 14.104 22.2608 11.9216 20.1512ZM25.6709 5.23784L20.5058 10.4029C17.8142 8.22051 13.8858 8.22051 11.1941 10.4757L6.10177 5.31059C11.6306 0.218244 20.1421 0.145496 25.6709 5.23784ZM5.15604 6.40181L10.3211 11.5669C8.21145 14.2586 8.2842 18.0415 10.3939 20.6604L5.22879 25.8255C0.20919 20.2966 0.209191 11.9306 5.15604 6.40181ZM6.24726 26.7712L11.4124 21.6061C14.0313 23.7158 17.8142 23.7885 20.5058 21.6789L25.6709 26.844C20.0694 31.8636 11.7034 31.7908 6.24726 26.7712Z" />
</svg>
