<svg width="67" height="55" viewBox="0 0 67 55" fill="none" xmlns="http://www.w3.org/2000/svg">
<path d="M11.5632 0H57.1724L66 37H2L11.5632 0Z" fill="#EACA8B"/>
<path d="M66.732 36.505L57.218 3.295C56.749 1.945 55.476 1 54.069 1H12.931C11.457 1 10.184 1.945 9.715 3.3625L0.201 36.4375C0.067 36.9775 0 37.5175 0 38.0575V49.6C0 52.57 2.412 55 5.36 55H61.64C64.588 55 67 52.57 67 49.6V38.0575C67 37.5175 66.933 36.9775 66.732 36.505ZM12.328 4.1725C12.395 3.9025 12.663 3.7 12.931 3.7H54.069C54.337 3.7 54.538 3.835 54.672 4.105L63.181 33.67C62.645 33.4675 62.176 33.4 61.64 33.4H5.36C4.824 33.4 4.355 33.4675 3.819 33.67L12.328 4.1725ZM64.32 49.6C64.32 51.085 63.114 52.3 61.64 52.3H5.36C3.886 52.3 2.68 51.085 2.68 49.6V38.8C2.68 37.315 3.886 36.1 5.36 36.1H61.64C63.114 36.1 64.32 37.315 64.32 38.8V49.6ZM13.4 44.2C13.4 45.685 12.194 46.9 10.72 46.9C9.246 46.9 8.04 45.685 8.04 44.2C8.04 42.715 9.246 41.5 10.72 41.5C12.194 41.5 13.4 42.715 13.4 44.2ZM21.44 44.2C21.44 45.685 20.234 46.9 18.76 46.9C17.286 46.9 16.08 45.685 16.08 44.2C16.08 42.715 17.286 41.5 18.76 41.5C20.234 41.5 21.44 42.715 21.44 44.2ZM29.48 44.2C29.48 45.685 28.274 46.9 26.8 46.9C25.326 46.9 24.12 45.685 24.12 44.2C24.12 42.715 25.326 41.5 26.8 41.5C28.274 41.5 29.48 42.715 29.48 44.2ZM34.84 41.5H58.96V44.2H34.84V41.5Z" fill="black"/>
</svg>
