<svg width="34" height="33" viewBox="0 0 34 33" fill="none" xmlns="http://www.w3.org/2000/svg">
<path d="M18.1651 1.44604L18.216 1.49693L32.771 16.0519C33.0763 16.3573 33.0763 16.8153 32.771 17.1207C32.5165 17.3751 32.0585 17.426 31.7532 17.1715L31.7023 17.1207L29.9719 15.3903V30.6069C29.9719 31.1667 29.5139 31.6248 28.9541 31.6248H4.52614C3.96633 31.6248 3.50831 31.1667 3.50831 30.6069V15.8993L2.28691 17.1207C1.98156 17.426 1.52354 17.426 1.21819 17.1207C0.963727 16.8662 0.912836 16.4082 1.16729 16.1028L1.21819 16.0519L15.7223 1.54782C16.3839 0.835337 17.5035 0.835337 18.1651 1.44604ZM16.8419 2.56565L5.03506 14.3725V30.098H12.1599V19.9197C12.1599 19.3599 12.6179 18.9019 13.1777 18.9019H20.8115C21.3713 18.9019 21.8293 19.3599 21.8293 19.9197V30.098H28.4452V13.8636L17.1982 2.61654C17.0964 2.51476 16.9437 2.51476 16.8419 2.56565ZM20.3025 20.4286H13.6866V30.098H20.3025V20.4286Z" fill="#5DA962" stroke="#5DA962"/>
</svg>
