<svg width="18" height="17" viewBox="0 0 18 17" fill="none" xmlns="http://www.w3.org/2000/svg">
<g clip-path="url(#clip0)">
<path opacity="0.500558" fill-rule="evenodd" clip-rule="evenodd" d="M8.71747 17C13.532 17 17.4349 13.1944 17.4349 8.5C17.4349 3.80558 13.532 0 8.71747 0C3.90294 0 0 3.80558 0 8.5C0 13.1944 3.90294 17 8.71747 17Z" fill="#EEEEEE"/>
<path opacity="0.5" d="M10.4311 11.4678L10.3578 11.7803C10.0583 11.9007 9.81907 11.9837 9.64004 12.0293C9.461 12.0781 9.30801 12.1025 9.18105 12.1025C8.92064 12.1025 8.72532 12.0358 8.59511 11.9023C8.46491 11.7656 8.3998 11.598 8.3998 11.3994C8.3998 11.3245 8.40631 11.2464 8.41933 11.165C8.43235 11.0837 8.45351 10.9811 8.48281 10.8574L9.00039 8.78223C9.02643 8.66829 9.05084 8.54622 9.07363 8.41602C9.09967 8.28581 9.11269 8.17513 9.11269 8.08398C9.11269 7.90169 9.08177 7.78125 9.01992 7.72266C8.96133 7.66081 8.83926 7.62988 8.65371 7.62988C8.58209 7.62988 8.48606 7.64128 8.36562 7.66406C8.24843 7.68685 8.15892 7.70638 8.09707 7.72266L8.17031 7.41016C8.42422 7.29622 8.65208 7.21159 8.8539 7.15625C9.05573 7.10091 9.21523 7.07324 9.33242 7.07324C9.59935 7.07324 9.79303 7.13672 9.91347 7.26367C10.0339 7.39062 10.0941 7.56152 10.0941 7.77637C10.0941 7.83496 10.0876 7.91471 10.0746 8.01562C10.0616 8.11654 10.0421 8.21745 10.016 8.31836L9.49355 10.3936C9.461 10.5205 9.4317 10.6458 9.40566 10.7695C9.38287 10.89 9.37148 10.9893 9.37148 11.0674C9.37148 11.2529 9.41217 11.3799 9.49355 11.4482C9.57819 11.5166 9.71328 11.5508 9.89883 11.5508C9.96067 11.5508 10.0486 11.5426 10.1625 11.5264C10.2797 11.5101 10.3692 11.4906 10.4311 11.4678ZM10.7777 5.22754C10.7777 5.41309 10.7175 5.57585 10.5971 5.71582C10.4766 5.85254 10.3269 5.9209 10.1478 5.9209C9.98183 5.9209 9.8386 5.85579 9.71816 5.72559C9.59772 5.59212 9.5375 5.44076 9.5375 5.27148C9.5375 5.09245 9.59772 4.9362 9.71816 4.80273C9.8386 4.66927 9.98183 4.60254 10.1478 4.60254C10.3334 4.60254 10.4848 4.66602 10.602 4.79297C10.7191 4.91667 10.7777 5.06152 10.7777 5.22754Z" fill="#040404"/>
</g>
<defs>
<clipPath id="clip0">
<rect width="17.4349" height="17" fill="white"/>
</clipPath>
</defs>
</svg>
