<svg width="18" height="17" viewBox="0 0 18 17" fill="none" xmlns="http://www.w3.org/2000/svg">
<g clip-path="url(#clip0)">
<path opacity="0.500558" fill-rule="evenodd" clip-rule="evenodd" d="M8.98212 17C13.7966 17 17.6996 13.1944 17.6996 8.5C17.6996 3.80558 13.7966 0 8.98212 0C4.16759 0 0.264648 3.80558 0.264648 8.5C0.264648 13.1944 4.16759 17 8.98212 17Z" fill="white"/>
<path opacity="0.5" d="M10.6957 11.4678L10.6225 11.7803C10.323 11.9007 10.0837 11.9837 9.90468 12.0293C9.72565 12.0781 9.57265 12.1025 9.4457 12.1025C9.18528 12.1025 8.98997 12.0358 8.85976 11.9023C8.72955 11.7656 8.66445 11.598 8.66445 11.3994C8.66445 11.3245 8.67096 11.2464 8.68398 11.165C8.697 11.0837 8.71816 10.9811 8.74746 10.8574L9.26504 8.78223C9.29108 8.66829 9.31549 8.54622 9.33828 8.41602C9.36432 8.28581 9.37734 8.17513 9.37734 8.08398C9.37734 7.90169 9.34642 7.78125 9.28457 7.72266C9.22597 7.66081 9.1039 7.62988 8.91836 7.62988C8.84674 7.62988 8.75071 7.64128 8.63027 7.66406C8.51308 7.68685 8.42356 7.70638 8.36172 7.72266L8.43496 7.41016C8.68886 7.29622 8.91673 7.21159 9.11855 7.15625C9.32037 7.10091 9.47988 7.07324 9.59707 7.07324C9.86399 7.07324 10.0577 7.13672 10.1781 7.26367C10.2986 7.39062 10.3588 7.56152 10.3588 7.77637C10.3588 7.83496 10.3523 7.91471 10.3393 8.01562C10.3262 8.11654 10.3067 8.21745 10.2807 8.31836L9.7582 10.3936C9.72565 10.5205 9.69635 10.6458 9.67031 10.7695C9.64752 10.89 9.63613 10.9893 9.63613 11.0674C9.63613 11.2529 9.67682 11.3799 9.7582 11.4482C9.84284 11.5166 9.97793 11.5508 10.1635 11.5508C10.2253 11.5508 10.3132 11.5426 10.4271 11.5264C10.5443 11.5101 10.6339 11.4906 10.6957 11.4678ZM11.0424 5.22754C11.0424 5.41309 10.9822 5.57585 10.8617 5.71582C10.7413 5.85254 10.5915 5.9209 10.4125 5.9209C10.2465 5.9209 10.1033 5.85579 9.98281 5.72559C9.86237 5.59212 9.80215 5.44076 9.80215 5.27148C9.80215 5.09245 9.86237 4.9362 9.98281 4.80273C10.1033 4.66927 10.2465 4.60254 10.4125 4.60254C10.598 4.60254 10.7494 4.66602 10.8666 4.79297C10.9838 4.91667 11.0424 5.06152 11.0424 5.22754Z" fill="#040404"/>
</g>
<defs>
<clipPath id="clip0">
<rect width="17.4349" height="17" fill="white" transform="translate(0.264648)"/>
</clipPath>
</defs>
</svg>
