<svg width="80" height="88" viewBox="0 0 56 64" fill="none" xmlns="http://www.w3.org/2000/svg">
  <g transform="matrix(1, 0, 0, 1, -12, -12)">
    <path d="M12 24.8C12 20.3196 12 18.0794 12.8719 16.3681C13.6389 14.8628 14.8628 13.6389 16.3681 12.8719C18.0794 12 20.3196 12 24.8 12H38H47.1128C49.2782 12 50.3609 12 51.3667 12.2661C52.258 12.5019 53.1018 12.89 53.8609 13.4133C54.7175 14.0037 55.4221 14.8258 56.8313 16.4699L64.9185 25.9049C66.0592 27.2357 66.6295 27.9011 67.0358 28.6518C67.3962 29.3177 67.6602 30.0314 67.8199 30.7715C68 31.6058 68 32.4822 68 34.235V47V63.2C68 67.6804 68 69.9206 67.1281 71.6319C66.3611 73.1372 65.1372 74.3611 63.6319 75.1281C61.9206 76 59.6804 76 55.2 76H24.8C20.3196 76 18.0794 76 16.3681 75.1281C14.8628 74.3611 13.6389 73.1372 12.8719 71.6319C12 69.9206 12 67.6804 12 63.2V24.8Z" fill="#000"/>
  </g>
</svg>