<svg width="32" height="37" viewBox="0 0 32 37" fill="none" xmlns="http://www.w3.org/2000/svg">
<path d="M19.2165 14.2887C20.866 12.6392 23.5876 12.4742 24.8247 12.3918C24.8247 13.7113 24.4948 16.3505 22.7629 18C21.1134 19.6495 18.3918 19.8144 17.0722 19.8969C17.2371 18.6598 17.567 15.9381 19.2165 14.2887ZM7.01031 31.5258C4.37113 28.9691 4.04124 24.7629 4.04124 23.1134C5.69072 23.1134 9.97938 23.2783 12.5361 25.8351C15.1753 28.3918 15.5052 32.5979 15.5052 34.2474C13.8557 34.3299 9.64949 34.0825 7.01031 31.5258ZM15.5052 20.0619C14.1856 19.9794 11.5464 19.732 9.89691 18C8.24742 16.3505 8.08247 13.6289 8 12.3918C9.31959 12.3918 11.9588 12.7217 13.6082 14.4536C15.0103 15.9381 15.4227 18.1649 15.4227 19.567V20.0619H15.5052ZM14.5155 5.87629C14.5155 4.22681 15.5876 2.74227 16.2474 2C16.9897 2.74227 18.0619 4.22681 18.0619 5.79382C18.0619 7.4433 16.9897 8.92784 16.2474 9.6701C15.6701 8.92784 14.5155 7.4433 14.5155 5.87629ZM17.1546 34.2474C17.1546 32.5979 17.4845 28.3918 20.1237 25.8351C22.7629 23.2783 26.9691 23.1134 28.6186 23.1134C28.6186 24.8454 28.2887 29.0515 25.6495 31.5258C23.0928 34.0825 18.8866 34.3299 17.1546 34.2474ZM0 36.8041H32V35.1546H22.6804C24.1649 34.6598 25.6495 33.9175 26.8866 32.7629C30.7629 29.0515 30.3505 22.6186 30.3505 22.2887C30.3505 21.8763 30.0206 21.5464 29.6082 21.5464C29.3608 21.5464 22.9278 20.9691 19.0515 24.6804C18.3093 25.4227 17.732 26.2474 17.2371 27.1546V21.5464C18.7216 21.5464 21.9381 21.299 24.0825 19.2371C26.8866 16.5155 26.6392 11.8144 26.6392 11.6495C26.6392 11.2371 26.3093 10.9072 25.8969 10.9072C25.732 10.9072 21.0309 10.4948 18.2268 13.2165C17.8969 13.5464 17.567 13.9588 17.3196 14.2887V11.2371C17.9794 10.5773 19.9588 8.43299 19.9588 5.79382C19.9588 2.6598 17.0722 0.268041 16.9897 0.185567C16.6598 -0.0618557 16.2474 -0.0618557 15.9175 0.185567C15.8351 0.268041 13.0309 2.74227 13.0309 5.87629C13.0309 8.35052 14.8454 10.4124 15.6701 11.1546V14.0412C15.5052 13.7938 15.2577 13.4639 15.0103 13.2165C12.2887 10.4124 7.58763 10.6598 7.42268 10.6598C7.01031 10.6598 6.68041 10.9897 6.68041 11.4021C6.68041 11.567 6.26804 16.268 8.98969 19.0722C11.0515 21.2165 14.268 21.5464 15.7526 21.6289V27.0722C15.2577 26.1649 14.6804 25.3402 13.9381 24.5979C10.0619 20.8866 3.62887 21.4639 3.38144 21.4639C2.96907 21.5464 2.63918 21.7938 2.63918 22.2062C2.63918 22.4536 2.2268 28.9691 6.10309 32.6804C7.34021 33.8351 8.82474 34.5773 10.3093 35.0722H0V36.8041Z" />
</svg>
