<svg width="32" height="39" viewBox="0 0 32 39" fill="none" xmlns="http://www.w3.org/2000/svg">
<path d="M30.5735 13.9987H30.3807L29.6482 11.7625L25.9855 0.543235C25.9084 0.350464 25.7928 0.196248 25.6 0.0805849C25.4072 0.00347644 25.2145 -0.0350778 25.0217 0.0420307L5.16626 6.59625L1.69639 7.75287C1.31084 7.86854 1.07952 8.33119 1.19518 8.71673L2.93012 13.9987H1.42651C0.616867 13.9987 0 14.6541 0 15.4252V36.63C0 37.4396 0.655422 38.0565 1.42651 38.0565H30.5735C31.3831 38.0565 32 37.4011 32 36.63V15.4252C32 14.6541 31.3831 13.9987 30.5735 13.9987ZM30.4578 28.2252H22.9398V23.8685H30.4964L30.4578 28.2252ZM2.89157 8.83239L24.7518 1.66131L28.8771 13.9215L21.4747 13.9987C21.9373 12.7649 21.9759 11.4155 21.5518 10.1432C20.5494 7.09745 17.2337 5.40107 14.188 6.40348C12.7229 6.90468 11.4892 7.90709 10.7952 9.3336C10.1012 10.7601 9.98554 12.3023 10.4482 13.8059C10.4867 13.883 10.4867 13.9601 10.5253 14.0372H4.5494L2.89157 8.83239ZM19.0072 13.9987C19.2771 13.4975 19.3157 12.9191 19.1614 12.3408C18.9687 11.8011 18.6217 11.377 18.0819 11.1071C17.6578 10.9143 17.2337 10.8372 16.7711 10.9143C16.694 10.9143 16.6169 10.9143 16.5398 10.9529L16.4241 10.9914L16.0386 9.87336L16.1542 9.8348C16.5398 9.71914 16.7711 9.25649 16.6554 8.87095C16.5398 8.4854 16.0771 8.25408 15.6916 8.36974L15.5759 8.4083V8.25408C15.4988 8.02275 15.306 7.82998 15.0747 7.75287C16.0386 7.5601 17.041 7.67577 17.9277 8.09986C18.9687 8.60107 19.7012 9.48781 20.0867 10.6059C20.4723 11.724 20.3566 12.9577 19.7783 13.9987H19.0072ZM12.2217 13.9987C12.106 13.7673 11.9904 13.536 11.9133 13.3047C11.5663 12.2252 11.6434 11.03 12.1446 10.0276C12.6072 9.14083 13.3398 8.44685 14.2265 8.06131C14.0723 8.25408 14.0337 8.52396 14.1108 8.75528L14.1494 8.9095C13.6096 9.10227 13.1855 9.44926 12.9157 9.95047C12.6458 10.4517 12.6072 11.03 12.8 11.5697C12.9928 12.1095 13.3398 12.5336 13.8795 12.8035C14.188 12.9577 14.4964 13.0348 14.8434 13.0348C14.959 13.0348 15.0747 13.0348 15.2289 12.9962C15.306 12.9962 15.3446 12.9962 15.4217 12.9577L15.5373 12.9191L15.8843 13.9987H12.2217ZM14.3422 10.6444C14.4193 10.5288 14.5349 10.4131 14.6506 10.3746L14.9976 11.4926C14.8434 11.5312 14.6892 11.5312 14.5735 11.4541C14.4193 11.377 14.3422 11.2613 14.2651 11.1071C14.2651 10.9529 14.2651 10.7987 14.3422 10.6444ZM17.3494 13.5746L17.0024 12.4565C17.1566 12.4179 17.3108 12.4179 17.4265 12.495C17.5807 12.5722 17.6578 12.6878 17.7349 12.842C17.812 13.1505 17.6193 13.4589 17.3494 13.5746ZM1.54217 36.5529V15.5408H4.00964H11.759H20.2024C20.2024 15.5408 20.2024 15.5408 20.241 15.5408H26.4867H30.4964V22.3264H22.8241C22.0145 22.3264 21.3976 22.9818 21.3976 23.7529V28.3408C21.3976 29.1505 22.053 29.7673 22.8241 29.7673H30.4578V36.5529H1.54217Z" />
</svg>
