<svg width="80" height="88" viewBox="0 0 80 88" fill="none" xmlns="http://www.w3.org/2000/svg">
<g filter="url(#filter0_dd_1872_58759)">
<path d="M12 24.8C12 20.3196 12 18.0794 12.8719 16.3681C13.6389 14.8628 14.8628 13.6389 16.3681 12.8719C18.0794 12 20.3196 12 24.8 12H38H47.1128C49.2782 12 50.3609 12 51.3667 12.2661C52.258 12.5019 53.1018 12.89 53.8609 13.4133C54.7175 14.0037 55.4221 14.8258 56.8313 16.4699L64.9185 25.9049C66.0592 27.2357 66.6295 27.9011 67.0358 28.6518C67.3962 29.3177 67.6602 30.0314 67.8199 30.7715C68 31.6058 68 32.4822 68 34.235V47V63.2C68 67.6804 68 69.9206 67.1281 71.6319C66.3611 73.1372 65.1372 74.3611 63.6319 75.1281C61.9206 76 59.6804 76 55.2 76H24.8C20.3196 76 18.0794 76 16.3681 75.1281C14.8628 74.3611 13.6389 73.1372 12.8719 71.6319C12 69.9206 12 67.6804 12 63.2V24.8Z" fill="white"/>
</g>
<path fill-rule="evenodd" clip-rule="evenodd" d="M54 39C54 46.732 47.732 53 40 53C32.268 53 26 46.732 26 39C26 31.268 32.268 25 40 25C47.732 25 54 31.268 54 39ZM56 39C56 47.8366 48.8366 55 40 55C31.1634 55 24 47.8366 24 39C24 30.1634 31.1634 23 40 23C48.8366 23 56 30.1634 56 39ZM42.2929 31.2929C42.6834 30.9024 43.3166 30.9024 43.7071 31.2929L47.3657 34.9515C48.1216 35.7074 47.5862 37 46.5172 37L33 37C32.4477 37 32 36.5523 32 36C32 35.4477 32.4477 35 33 35L44.5858 35L42.2929 32.7071C41.9024 32.3166 41.9024 31.6834 42.2929 31.2929ZM37.7071 46.7071C37.3166 47.0976 36.6834 47.0976 36.2929 46.7071L32.6343 43.0485C31.8784 42.2926 32.4138 41 33.4828 41H47C47.5523 41 48 41.4477 48 42C48 42.5523 47.5523 43 47 43H35.4142L37.7071 45.2929C38.0976 45.6834 38.0976 46.3166 37.7071 46.7071Z" fill="url(#paint0_linear_1872_58759)"/>
<g opacity="0.4">
<path d="M28.3477 66.751C28.569 66.751 28.7399 66.8145 28.8604 66.9414C28.9808 67.0651 29.041 67.2214 29.041 67.4102C29.041 67.5957 28.9808 67.7503 28.8604 67.874C28.7399 67.9945 28.569 68.0547 28.3477 68.0547C28.1361 68.0547 27.9684 67.9945 27.8447 67.874C27.721 67.7536 27.6592 67.599 27.6592 67.4102C27.6592 67.2214 27.7194 67.0651 27.8398 66.9414C27.9603 66.8145 28.1296 66.751 28.3477 66.751Z" fill="#4CAF50"/>
<path d="M30.1787 65.3105C30.1787 64.793 30.2812 64.3275 30.4863 63.9141C30.6914 63.4974 30.9795 63.1784 31.3506 62.957C31.7217 62.7324 32.1481 62.6201 32.6299 62.6201C33.3428 62.6201 33.9206 62.8496 34.3633 63.3086C34.8092 63.7676 35.0501 64.3763 35.0859 65.1348L35.0908 65.4131C35.0908 65.9339 34.9899 66.3994 34.7881 66.8096C34.5895 67.2197 34.3031 67.5371 33.9287 67.7617C33.5576 67.9863 33.1279 68.0986 32.6396 68.0986C31.8942 68.0986 31.2969 67.8512 30.8477 67.3564C30.4017 66.8584 30.1787 66.196 30.1787 65.3691V65.3105ZM31.3652 65.4131C31.3652 65.9567 31.4775 66.3831 31.7021 66.6924C31.9268 66.9984 32.2393 67.1514 32.6396 67.1514C33.04 67.1514 33.3509 66.9951 33.5723 66.6826C33.7969 66.3701 33.9092 65.9128 33.9092 65.3105C33.9092 64.7767 33.7936 64.3535 33.5625 64.041C33.3346 63.7285 33.0238 63.5723 32.6299 63.5723C32.2425 63.5723 31.9349 63.7269 31.707 64.0361C31.4792 64.3421 31.3652 64.8011 31.3652 65.4131Z" fill="#4CAF50"/>
<path d="M36.5117 68.001V63.5967H35.7061V62.7178H36.5117V62.2344C36.5117 61.6484 36.6745 61.196 37 60.877C37.3255 60.5579 37.7812 60.3984 38.3672 60.3984C38.5755 60.3984 38.7969 60.4277 39.0312 60.4863L39.002 61.4141C38.8717 61.388 38.7204 61.375 38.5479 61.375C37.9814 61.375 37.6982 61.6663 37.6982 62.249V62.7178H38.7725V63.5967H37.6982V68.001H36.5117Z" fill="#4CAF50"/>
<path d="M40.0566 68.001V63.5967H39.251V62.7178H40.0566V62.2344C40.0566 61.6484 40.2194 61.196 40.5449 60.877C40.8704 60.5579 41.3262 60.3984 41.9121 60.3984C42.1204 60.3984 42.3418 60.4277 42.5762 60.4863L42.5469 61.4141C42.4167 61.388 42.2653 61.375 42.0928 61.375C41.5264 61.375 41.2432 61.6663 41.2432 62.249V62.7178H42.3174V63.5967H41.2432V68.001H40.0566Z" fill="#4CAF50"/>
<path d="M45.3936 68.0986C44.6416 68.0986 44.0312 67.8626 43.5625 67.3906C43.097 66.9154 42.8643 66.2839 42.8643 65.4961V65.3496C42.8643 64.8223 42.9652 64.3519 43.167 63.9385C43.3721 63.5218 43.6585 63.1979 44.0264 62.9668C44.3942 62.7357 44.8044 62.6201 45.2568 62.6201C45.9762 62.6201 46.5312 62.8496 46.9219 63.3086C47.3158 63.7676 47.5127 64.417 47.5127 65.2568V65.7354H44.0605C44.0964 66.1715 44.2412 66.5166 44.4951 66.7705C44.7523 67.0244 45.0745 67.1514 45.4619 67.1514C46.0055 67.1514 46.4482 66.9316 46.79 66.4922L47.4297 67.1025C47.2181 67.4183 46.9349 67.6641 46.5801 67.8398C46.2285 68.0124 45.833 68.0986 45.3936 68.0986ZM45.252 63.5723C44.9264 63.5723 44.6628 63.6862 44.4609 63.9141C44.2624 64.1419 44.1354 64.4593 44.0801 64.8662H46.3408V64.7783C46.3148 64.3812 46.209 64.0817 46.0234 63.8799C45.8379 63.6748 45.5807 63.5723 45.252 63.5723Z" fill="#4CAF50"/>
<path d="M51.2041 63.8018C51.0479 63.7757 50.8867 63.7627 50.7207 63.7627C50.1771 63.7627 49.8109 63.971 49.6221 64.3877V68.001H48.4355V62.7178H49.5684L49.5977 63.3086C49.8841 62.8496 50.2812 62.6201 50.7891 62.6201C50.9583 62.6201 51.0983 62.6429 51.209 62.6885L51.2041 63.8018Z" fill="#4CAF50"/>
</g>
<defs>
<filter id="filter0_dd_1872_58759" x="0" y="0" width="80" height="88" filterUnits="userSpaceOnUse" color-interpolation-filters="sRGB">
<feFlood flood-opacity="0" result="BackgroundImageFix"/>
<feColorMatrix in="SourceAlpha" type="matrix" values="0 0 0 0 0 0 0 0 0 0 0 0 0 0 0 0 0 0 127 0" result="hardAlpha"/>
<feOffset dy="2"/>
<feGaussianBlur stdDeviation="2"/>
<feComposite in2="hardAlpha" operator="out"/>
<feColorMatrix type="matrix" values="0 0 0 0 0.0717218 0 0 0 0 0.389968 0 0 0 0 0.23721 0 0 0 0.32 0"/>
<feBlend mode="normal" in2="BackgroundImageFix" result="effect1_dropShadow_1872_58759"/>
<feColorMatrix in="SourceAlpha" type="matrix" values="0 0 0 0 0 0 0 0 0 0 0 0 0 0 0 0 0 0 127 0" result="hardAlpha"/>
<feOffset/>
<feGaussianBlur stdDeviation="6"/>
<feComposite in2="hardAlpha" operator="out"/>
<feColorMatrix type="matrix" values="0 0 0 0 0.0934249 0 0 0 0 0.634961 0 0 0 0 0.240685 0 0 0 0.5 0"/>
<feBlend mode="normal" in2="effect1_dropShadow_1872_58759" result="effect2_dropShadow_1872_58759"/>
<feBlend mode="normal" in="SourceGraphic" in2="effect2_dropShadow_1872_58759" result="shape"/>
</filter>
<linearGradient id="paint0_linear_1872_58759" x1="40" y1="23" x2="40" y2="55" gradientUnits="userSpaceOnUse">
<stop stop-color="#3AAC59"/>
<stop offset="1" stop-color="#00C847"/>
</linearGradient>
</defs>
</svg>
