<svg width="509" height="239" viewBox="0 0 509 239" fill="none" xmlns="http://www.w3.org/2000/svg">
<path d="M391.404 48.2199C381.068 40.7302 354.103 62.9003 337.56 62.0712L322.481 67.4529C306.621 72.7805 310.449 51.5271 306.606 45.9952C302.763 40.4634 296.236 44.2044 293.453 46.7664C286.264 53.3849 284.642 35.4894 267.883 36.472C256.925 37.1144 250.287 23.2109 244.442 17.2569C238.598 11.3029 229.098 18.1565 220.334 18.6704C213.322 19.0815 187.248 11.5152 188.554 20.5336C184.138 26.4895 166.631 27.476 168.889 35.9791C171.147 44.4822 192.276 41.0048 183.871 53.1912L166.135 69.5233C158.624 76.4403 152.047 73.0478 149.698 70.487C144.584 70.7868 134.514 74.0758 135.144 84.8329C135.933 98.2794 115.682 90.4717 100.34 91.3712C84.9979 92.2707 83.9022 92.3349 75.7136 102.71C67.525 113.085 74.2577 115.389 85.5316 120.125C96.8054 124.861 87.3653 151.401 109.078 146.63C123.376 141.194 109.175 158.781 123.676 149.035C134.83 141.54 131.586 157.485 155.23 166.893C166.976 174.2 152.565 164.89 178.926 183.134C200.115 188.188 220.048 188.485 229.067 179.061C236.207 169.547 267.977 168.072 280.516 189.236C284.791 196.452 289.343 201.726 302.493 200.955C315.643 200.184 310.558 204.043 345.888 206.469C381.217 208.895 370.995 215.796 387.59 217.521C404.186 219.247 414.116 195.676 431.072 184.787C442.968 181.391 414.262 175.512 416.656 160.08C419.05 144.647 461.727 157.939 475.5 149.035C486.518 141.913 458.235 131.556 453.434 130.938C457.5 120.125 443.397 113.535 464.016 105.13C490.264 102.692 464.376 92.5158 462.807 84.512C461.239 76.5083 455.865 78.6224 449.912 70.8757C443.96 63.1289 441.558 59.6716 434.615 53.7822C427.672 47.8928 412.698 55.0672 391.404 48.2199Z" fill="#EDF2F3" stroke="#E2ECEE"/>
<path d="M392.676 129.294C381.327 120.184 348.915 153.053 330.001 151.029L312.347 156.09C293.803 161.038 299.621 137.376 295.586 130.898C291.551 124.42 283.815 128.199 280.451 130.898C271.762 137.871 271.106 117.628 251.822 117.628C239.213 117.628 217.772 135.468 211.47 128.383C205.168 121.298 236.686 113.203 226.601 113.203C218.534 113.203 190.403 94.8725 191.295 105.106C185.831 111.517 166.076 104.339 166.076 114.216C166.076 156.09 143.38 120.289 132.923 133.447C129.561 136.146 134.079 121.095 125 128.383C115.921 135.67 98.878 141.439 96.356 138.403C88.0336 128.383 62.3104 118.752 62.3104 130.898C62.3104 146.08 51.3295 141.327 33.6762 141.327H33.6761C16.0229 141.327 14.7621 141.327 4.67454 152.461C-5.41304 163.595 2.15265 166.631 14.7621 172.704C27.3716 178.777 37.0915 192.447 62.3104 188.511C79.072 183.338 79.072 198.52 96.356 188.511C109.65 180.813 106.444 193.572 132.923 205.718C145.902 214.715 123.205 180.301 152.207 202.569C176.165 209.654 182.842 222.3 193.818 212.29C202.645 202.056 221.187 212.29 232.535 212.29H280.451C295.583 212.29 290.539 207.23 330.889 212.29C371.24 217.351 346.02 209.254 364.935 212.29C383.849 215.327 378.805 208.242 398.98 197.108C412.851 194.072 417.006 200.657 420.789 183.45C424.572 166.244 441.853 199.132 458.245 190.023C471.359 182.735 463.709 178.889 458.245 177.877C452.781 171.804 466.79 180.801 491 172.704C521.263 171.692 510.689 151.061 464.922 135.879C454.369 132.378 456.095 153.085 449.791 143.976C443.486 134.867 449.418 145.488 441.853 138.403C434.287 131.318 416.634 138.403 392.676 129.294Z" fill="#E0E7E9"/>
<g clip-path="url(#clip0_4317_81251)">
<rect width="142.28" height="205.29" rx="10.8404" transform="matrix(0.959997 -0.28001 0.977271 0.211994 12.3516 192.446)" fill="#EDF2F3" stroke="#CFDDE1" stroke-width="4"/>
<rect width="120.599" height="137.537" rx="5.4202" transform="matrix(0.959997 -0.28001 0.977271 0.211994 33.3516 191.709)" fill="#EDF2F3" stroke="#CFDDE1" stroke-width="2"/>
<rect width="73.1726" height="9.48534" transform="matrix(0.959997 -0.28001 0.977271 0.211994 173.723 222.159)" fill="#CFDDE1"/>
<rect width="47.4267" height="9.48534" transform="matrix(0.959997 -0.28001 0.977271 0.211994 186.965 225.031)" fill="#CFDDE1"/>
<rect width="27.7785" height="2.7101" transform="matrix(0.959997 -0.28001 0.977271 0.211994 201.532 228.191)" fill="#CFDDE1"/>
<rect width="27.7785" height="2.7101" transform="matrix(0.959997 -0.28001 0.977271 0.211994 208.153 229.627)" fill="#CFDDE1"/>
<path d="M133.424 201.795C134.652 201.436 143.983 202.167 146.351 201.476C148.72 200.785 137.195 198.151 140.529 197.179C143.862 196.207 168.96 201.785 172.03 200.889C175.101 199.994 115.168 186.636 120.168 185.177C125.168 183.719 181.659 192.449 185.695 191.272C189.73 190.095 164.383 184.998 167.367 184.173C170.351 183.348 200.97 189.678 204.654 188.603C208.339 187.528 171.527 176.465 171.222 175.328" stroke="#CFDDE1" stroke-width="7.31017" stroke-linecap="round" stroke-linejoin="round"/>
</g>
<path fill-rule="evenodd" clip-rule="evenodd" d="M371.621 172.044C372.575 172.392 373.575 172.59 374.589 172.59H378.547C381.638 172.59 384.144 175.096 384.144 178.187V183.707C384.144 183.75 384.11 183.784 384.067 183.784C384.031 183.784 384 183.809 383.992 183.844C382.043 192.251 359.763 198.881 332.565 198.881C305.36 198.881 283.076 192.248 281.137 183.838C281.13 183.806 281.102 183.784 281.069 183.784C281.031 183.784 281 183.753 281 183.715V182.646V180.59C281 176.172 284.582 172.59 289 172.59H290.541C291.555 172.59 292.556 172.392 293.509 172.044C302.965 168.594 316.955 166.41 332.565 166.41C348.175 166.41 362.165 168.594 371.621 172.044Z" fill="#EDF2F3"/>
<path d="M293.509 172.044L293.166 171.105L293.509 172.044ZM383.992 183.844L384.966 184.07L383.992 183.844ZM371.621 172.044L371.964 171.105L371.621 172.044ZM374.589 173.59H378.547V171.59H374.589V173.59ZM383.144 178.187V183.707H385.144V178.187H383.144ZM383.018 183.618C382.617 185.346 381.119 187.152 378.416 188.901C375.738 190.634 372.019 192.217 367.465 193.556C358.364 196.231 346.093 197.881 332.565 197.881V199.881C346.235 199.881 358.704 198.216 368.029 195.475C372.688 194.105 376.605 192.455 379.502 190.58C382.374 188.722 384.392 186.546 384.966 184.07L383.018 183.618ZM332.565 197.881C319.034 197.881 306.76 196.231 297.658 193.554C293.104 192.215 289.386 190.631 286.708 188.897C284.006 187.147 282.51 185.341 282.111 183.613L280.163 184.063C280.734 186.54 282.75 188.717 285.621 190.576C288.518 192.451 292.434 194.103 297.094 195.473C306.42 198.215 318.891 199.881 332.565 199.881V197.881ZM282 183.715V182.646H280V183.715H282ZM282 182.646V180.59H280V182.646H282ZM289 173.59H290.541V171.59H289V173.59ZM293.851 172.984C303.164 169.585 317.03 167.41 332.565 167.41V165.41C316.88 165.41 302.765 167.602 293.166 171.105L293.851 172.984ZM332.565 167.41C348.1 167.41 361.966 169.585 371.279 172.984L371.964 171.105C362.365 167.602 348.25 165.41 332.565 165.41V167.41ZM290.541 173.59C291.686 173.59 292.802 173.367 293.851 172.984L293.166 171.105C292.309 171.418 291.425 171.59 290.541 171.59V173.59ZM282 180.59C282 176.724 285.134 173.59 289 173.59V171.59C284.029 171.59 280 175.62 280 180.59H282ZM281.069 182.784C281.583 182.784 282 183.201 282 183.715H280C280 184.306 280.479 184.784 281.069 184.784V182.784ZM384.067 182.784C383.57 182.784 383.132 183.126 383.018 183.618L384.966 184.07C384.868 184.492 384.492 184.784 384.067 184.784V182.784ZM383.144 183.707C383.144 183.198 383.557 182.784 384.067 182.784V184.784C384.662 184.784 385.144 184.302 385.144 183.707H383.144ZM378.547 173.59C381.086 173.59 383.144 175.649 383.144 178.187H385.144C385.144 174.544 382.191 171.59 378.547 171.59V173.59ZM282.111 183.613C281.998 183.123 281.563 182.784 281.069 182.784V184.784C280.641 184.784 280.261 184.49 280.163 184.063L282.111 183.613ZM374.589 171.59C373.705 171.59 372.821 171.418 371.964 171.105L371.279 172.984C372.328 173.367 373.444 173.59 374.589 173.59V171.59Z" fill="#CFDDE1"/>
<ellipse cx="332.58" cy="171.236" rx="51.565" ry="16.2358" fill="#EDF2F3" stroke="#CFDDE1" stroke-width="2"/>
<ellipse cx="332.579" cy="170.436" rx="42.2132" ry="10.5208" fill="#EDF2F3" stroke="#CFDDE1" stroke-width="2"/>
<path fill-rule="evenodd" clip-rule="evenodd" d="M422.699 193.45C423.65 193.803 424.65 194 425.665 194H431C434.866 194 438 197.134 438 201V207.904C438 207.957 437.957 208 437.904 208C437.858 208 437.819 208.031 437.809 208.075C435.372 218.589 407.507 226.882 373.491 226.882C339.467 226.882 311.596 218.585 309.171 208.067C309.162 208.028 309.127 208 309.087 208C309.039 208 309 207.961 309 207.914V206.576V202C309 197.582 312.582 194 317 194H321.317C322.332 194 323.333 193.803 324.284 193.45C336.113 189.058 353.768 186.27 373.491 186.27C393.214 186.27 410.869 189.058 422.699 193.45Z" fill="#EDF2F3"/>
<path d="M437.809 208.075L436.835 207.849L437.809 208.075ZM309.171 208.067L308.197 208.292L309.171 208.067ZM422.699 193.45L422.35 194.387L422.699 193.45ZM425.665 195H431V193H425.665V195ZM437 201V207.904H439V201H437ZM436.835 207.849C436.312 210.104 434.374 212.408 430.972 214.61C427.595 216.795 422.919 218.784 417.21 220.462C405.8 223.816 390.428 225.882 373.491 225.882V227.882C390.57 227.882 406.139 225.801 417.774 222.381C423.589 220.671 428.462 218.616 432.058 216.289C435.629 213.978 438.087 211.303 438.783 208.301L436.835 207.849ZM373.491 225.882C356.55 225.882 341.175 223.815 329.764 220.459C324.054 218.78 319.379 216.791 316.003 214.605C312.602 212.403 310.666 210.098 310.146 207.843L308.197 208.292C308.889 211.296 311.346 213.972 314.916 216.284C318.511 218.612 323.385 220.668 329.199 222.378C340.835 225.8 356.408 227.882 373.491 227.882V225.882ZM310 207.914V206.576H308V207.914H310ZM310 206.576V202H308V206.576H310ZM317 195H321.317V193H317V195ZM324.632 194.387C336.315 190.049 353.843 187.27 373.491 187.27V185.27C353.693 185.27 335.911 188.066 323.936 192.512L324.632 194.387ZM373.491 187.27C393.139 187.27 410.667 190.049 422.35 194.387L423.047 192.512C411.071 188.066 393.289 185.27 373.491 185.27V187.27ZM321.317 195C322.462 195 323.58 194.778 324.632 194.387L323.936 192.512C323.085 192.828 322.202 193 321.317 193V195ZM310 202C310 198.134 313.134 195 317 195V193C312.029 193 308 197.03 308 202H310ZM309.087 207C309.591 207 310 207.409 310 207.914H308C308 208.514 308.486 209 309.087 209V207ZM437.904 207C437.397 207 436.951 207.348 436.835 207.849L438.783 208.301C438.688 208.714 438.32 209 437.904 209V207ZM437 207.904C437 207.405 437.405 207 437.904 207V209C438.509 209 439 208.509 439 207.904H437ZM431 195C434.314 195 437 197.686 437 201H439C439 196.582 435.418 193 431 193V195ZM310.146 207.843C310.031 207.344 309.588 207 309.087 207V209C308.666 209 308.293 208.711 308.197 208.292L310.146 207.843ZM425.665 193C424.78 193 423.897 192.828 423.047 192.512L422.35 194.387C423.402 194.778 424.52 195 425.665 195V193Z" fill="#CFDDE1"/>
<ellipse cx="373.509" cy="192.306" rx="64.4911" ry="20.3058" fill="#EDF2F3" stroke="#CFDDE1" stroke-width="2"/>
<ellipse cx="373.509" cy="191.306" rx="52.795" ry="13.1581" fill="#EDF2F3" stroke="#CFDDE1" stroke-width="2"/>
<path d="M282.906 211.3L294.818 207.451L317.27 116.654L316.43 100.343C316.182 95.516 313.764 91.0598 309.853 88.2195L287.858 72.2464L265.416 66.3697C257.422 64.2763 249.149 68.6155 246.326 76.3825L235.564 105.993L220.928 146.263C220.197 148.275 219.877 150.413 219.987 152.551L221.505 182.042L234.127 206.135L275.783 211.923C278.174 212.256 280.609 212.043 282.906 211.3Z" fill="#49D45A"/>
<g opacity="0.99" filter="url(#filter0_f_4317_81251)">
<path d="M281.665 85.144C295.393 98.9567 306.461 104.075 291.571 131.696C276.681 159.318 293.418 216.213 255.549 199.677C232.215 187.098 225.37 154.509 240.26 126.888C255.15 99.2671 258.331 72.565 281.665 85.144Z" fill="#E0FF91" style="mix-blend-mode:screen"/>
</g>
<g opacity="0.99" filter="url(#filter1_f_4317_81251)">
<path d="M247.426 198.119C251.036 188.713 251.652 182.322 263.976 184.087C276.3 185.852 295.968 166.453 294.231 188.127C292.251 201.956 280.655 211.735 268.331 209.97C256.007 208.205 245.446 211.947 247.426 198.119Z" fill="#FEB0FE" fill-opacity="0.8" style="mix-blend-mode:screen"/>
</g>
<g filter="url(#filter2_i_4317_81251)">
<path d="M294.592 207.163L317.044 116.367L277.477 178.861L278.387 196.545L294.592 207.163Z" fill="url(#paint0_linear_4317_81251)"/>
</g>
<g filter="url(#filter3_i_4317_81251)">
<path d="M309.657 87.791L287.662 71.818L249.757 147.332L250.396 159.743L277.507 178.72L314.351 120.525C316.122 117.728 316.982 114.45 316.812 111.144L316.234 99.9148C315.985 95.0875 313.568 90.6313 309.657 87.791Z" fill="url(#paint1_linear_4317_81251)"/>
</g>
<path d="M287.908 72.2439L265.467 66.3672C257.472 64.2737 249.199 68.613 246.376 76.3799L235.614 105.991L250.004 147.758L287.908 72.2439Z" fill="url(#paint2_linear_4317_81251)"/>
<g opacity="0.5" filter="url(#filter4_i_4317_81251)">
<path d="M221.539 182.71L234.161 206.804L269.315 204.994L278.648 197.5L277.737 179.817L250.627 160.84L221.539 182.71Z" fill="url(#paint3_linear_4317_81251)"/>
</g>
<g filter="url(#filter5_f_4317_81251)">
<path d="M240.797 205.468L252.347 209.816L287.33 208.015L296.904 206.122L296.723 202.589L270.575 199.866L240.797 205.468Z" fill="#5F9180"/>
</g>
<path d="M219.797 148.861L221.482 181.591L250.569 159.721L249.93 147.309L235.541 105.542L219.797 148.861Z" fill="url(#paint4_linear_4317_81251)"/>
<g filter="url(#filter6_i_4317_81251)">
<path d="M279.091 212.061L294.493 207.084L278.289 196.465L268.956 203.959L233.802 205.768L279.091 212.061Z" fill="#073D02" fill-opacity="0.3"/>
</g>
<path d="M294.818 207.451L282.906 211.3C280.609 212.043 278.174 212.256 275.783 211.923L234.127 206.135M294.818 207.451L317.27 116.654M294.818 207.451L278.613 196.832M234.127 206.135L221.505 182.042M234.127 206.135L264.117 204.591C267.474 204.419 270.691 203.193 273.312 201.089L278.613 196.832M221.505 182.042L219.987 152.551C219.877 150.413 220.197 148.275 220.928 146.263L235.564 105.993M221.505 182.042L250.592 160.171M287.858 72.2464L265.416 66.3697C257.422 64.2763 249.149 68.6155 246.326 76.3825L235.564 105.993M287.858 72.2464L309.853 88.2195C313.764 91.0598 316.182 95.516 316.43 100.343L317.27 116.654M287.858 72.2464L249.954 147.76M317.27 116.654L277.703 179.149M278.613 196.832L277.703 179.149M277.703 179.149L250.592 160.171M250.592 160.171L249.954 147.76M249.954 147.76L235.564 105.993" stroke="url(#paint5_linear_4317_81251)" stroke-width="2" stroke-linecap="round"/>
<defs>
<filter id="filter0_f_4317_81251" x="220.384" y="69.9434" width="90.2881" height="144.694" filterUnits="userSpaceOnUse" color-interpolation-filters="sRGB">
<feFlood flood-opacity="0" result="BackgroundImageFix"/>
<feBlend mode="normal" in="SourceGraphic" in2="BackgroundImageFix" result="shape"/>
<feGaussianBlur stdDeviation="6" result="effect1_foregroundBlur_4317_81251"/>
</filter>
<filter id="filter1_f_4317_81251" x="235.187" y="165.784" width="71.1523" height="56.3926" filterUnits="userSpaceOnUse" color-interpolation-filters="sRGB">
<feFlood flood-opacity="0" result="BackgroundImageFix"/>
<feBlend mode="normal" in="SourceGraphic" in2="BackgroundImageFix" result="shape"/>
<feGaussianBlur stdDeviation="6" result="effect1_foregroundBlur_4317_81251"/>
</filter>
<filter id="filter2_i_4317_81251" x="277.477" y="108.367" width="39.5674" height="98.7964" filterUnits="userSpaceOnUse" color-interpolation-filters="sRGB">
<feFlood flood-opacity="0" result="BackgroundImageFix"/>
<feBlend mode="normal" in="SourceGraphic" in2="BackgroundImageFix" result="shape"/>
<feColorMatrix in="SourceAlpha" type="matrix" values="0 0 0 0 0 0 0 0 0 0 0 0 0 0 0 0 0 0 127 0" result="hardAlpha"/>
<feOffset dy="-8"/>
<feGaussianBlur stdDeviation="10"/>
<feComposite in2="hardAlpha" operator="arithmetic" k2="-1" k3="1"/>
<feColorMatrix type="matrix" values="0 0 0 0 0.0846935 0 0 0 0 0.297222 0 0 0 0 0.246215 0 0 0 0.29 0"/>
<feBlend mode="normal" in2="shape" result="effect1_innerShadow_4317_81251"/>
</filter>
<filter id="filter3_i_4317_81251" x="249.757" y="63.8179" width="67.0762" height="114.902" filterUnits="userSpaceOnUse" color-interpolation-filters="sRGB">
<feFlood flood-opacity="0" result="BackgroundImageFix"/>
<feBlend mode="normal" in="SourceGraphic" in2="BackgroundImageFix" result="shape"/>
<feColorMatrix in="SourceAlpha" type="matrix" values="0 0 0 0 0 0 0 0 0 0 0 0 0 0 0 0 0 0 127 0" result="hardAlpha"/>
<feOffset dy="-8"/>
<feGaussianBlur stdDeviation="10"/>
<feComposite in2="hardAlpha" operator="arithmetic" k2="-1" k3="1"/>
<feColorMatrix type="matrix" values="0 0 0 0 0.0846935 0 0 0 0 0.297222 0 0 0 0 0.246215 0 0 0 0.29 0"/>
<feBlend mode="normal" in2="shape" result="effect1_innerShadow_4317_81251"/>
</filter>
<filter id="filter4_i_4317_81251" x="221.539" y="152.84" width="57.1084" height="53.9639" filterUnits="userSpaceOnUse" color-interpolation-filters="sRGB">
<feFlood flood-opacity="0" result="BackgroundImageFix"/>
<feBlend mode="normal" in="SourceGraphic" in2="BackgroundImageFix" result="shape"/>
<feColorMatrix in="SourceAlpha" type="matrix" values="0 0 0 0 0 0 0 0 0 0 0 0 0 0 0 0 0 0 127 0" result="hardAlpha"/>
<feOffset dy="-8"/>
<feGaussianBlur stdDeviation="10"/>
<feComposite in2="hardAlpha" operator="arithmetic" k2="-1" k3="1"/>
<feColorMatrix type="matrix" values="0 0 0 0 0.0846935 0 0 0 0 0.297222 0 0 0 0 0.246215 0 0 0 0.29 0"/>
<feBlend mode="normal" in2="shape" result="effect1_innerShadow_4317_81251"/>
</filter>
<filter id="filter5_f_4317_81251" x="231.797" y="190.866" width="74.1074" height="27.9502" filterUnits="userSpaceOnUse" color-interpolation-filters="sRGB">
<feFlood flood-opacity="0" result="BackgroundImageFix"/>
<feBlend mode="normal" in="SourceGraphic" in2="BackgroundImageFix" result="shape"/>
<feGaussianBlur stdDeviation="4.5" result="effect1_foregroundBlur_4317_81251"/>
</filter>
<filter id="filter6_i_4317_81251" x="233.802" y="188.465" width="60.6914" height="23.5967" filterUnits="userSpaceOnUse" color-interpolation-filters="sRGB">
<feFlood flood-opacity="0" result="BackgroundImageFix"/>
<feBlend mode="normal" in="SourceGraphic" in2="BackgroundImageFix" result="shape"/>
<feColorMatrix in="SourceAlpha" type="matrix" values="0 0 0 0 0 0 0 0 0 0 0 0 0 0 0 0 0 0 127 0" result="hardAlpha"/>
<feOffset dy="-8"/>
<feGaussianBlur stdDeviation="10"/>
<feComposite in2="hardAlpha" operator="arithmetic" k2="-1" k3="1"/>
<feColorMatrix type="matrix" values="0 0 0 0 0.0846935 0 0 0 0 0.297222 0 0 0 0 0.246215 0 0 0 0.29 0"/>
<feBlend mode="normal" in2="shape" result="effect1_innerShadow_4317_81251"/>
</filter>
<linearGradient id="paint0_linear_4317_81251" x1="301.105" y1="130.687" x2="291.839" y2="190.479" gradientUnits="userSpaceOnUse">
<stop stop-color="#75F56A" stop-opacity="0.43"/>
<stop offset="1" stop-color="#014715" stop-opacity="0.36"/>
</linearGradient>
<linearGradient id="paint1_linear_4317_81251" x1="278.408" y1="128.869" x2="282.507" y2="169.183" gradientUnits="userSpaceOnUse">
<stop stop-color="#75F56A" stop-opacity="0.43"/>
<stop offset="1" stop-color="#F9FFFA"/>
</linearGradient>
<linearGradient id="paint2_linear_4317_81251" x1="257.197" y1="86.4037" x2="251.144" y2="109.613" gradientUnits="userSpaceOnUse">
<stop stop-color="#E0FF91" stop-opacity="0.4"/>
<stop offset="1" stop-color="white" stop-opacity="0.56"/>
</linearGradient>
<linearGradient id="paint3_linear_4317_81251" x1="255.136" y1="167.402" x2="254.977" y2="192.441" gradientUnits="userSpaceOnUse">
<stop stop-color="#5F9180" stop-opacity="0.44"/>
<stop offset="1" stop-color="#5F9180"/>
</linearGradient>
<linearGradient id="paint4_linear_4317_81251" x1="241.56" y1="132.769" x2="230.827" y2="151.178" gradientUnits="userSpaceOnUse">
<stop stop-color="#E0FF91" stop-opacity="0.4"/>
<stop offset="1" stop-color="white" stop-opacity="0.56"/>
</linearGradient>
<linearGradient id="paint5_linear_4317_81251" x1="257.462" y1="53.847" x2="272.652" y2="212.776" gradientUnits="userSpaceOnUse">
<stop stop-color="#ECFFBB"/>
<stop offset="0.61227" stop-color="#4ED55C"/>
<stop offset="1" stop-color="#0B6314"/>
</linearGradient>
<clipPath id="clip0_4317_81251">
<rect width="153" height="217" fill="white" transform="matrix(0.959997 -0.28001 0.977271 0.211994 1 192.599)"/>
</clipPath>
</defs>
</svg>
