<svg width="150px" height="58px" viewBox="0 0 150 58" version="1.1" xmlns="http://www.w3.org/2000/svg" xmlns:xlink="http://www.w3.org/1999/xlink">
    <g id="Community" stroke="none" stroke-width="1" fill="none" fill-rule="evenodd">
        <g transform="translate(-189.000000, -1096.000000)" fill="#3AAC59" fill-rule="nonzero" id="footer">
            <g transform="translate(0.000000, 988.000000)">
                <g id="Group-14" transform="translate(189.000000, 108.000000)">
                    <g id="chia-logo-(1)">
                        <polygon id="Rectangle-path" points="90 19 103 19 103 57 90 57"></polygon>
                        <g id="Group">
                            <path d="M72.151257,16.1408116 C67.1530726,16.1408116 62.0421788,17.3373768 60.7696927,19.5644928 C60.752514,19.5926522 60.7357542,19.6187101 60.7194134,19.6477101 L60.7194134,3.70443478 L47.3715084,3.70443478 L47.3715084,28.9974783 L47.3715084,29.0407681 C48.6993017,29.6489275 50.0610335,30.3436667 51.4386872,31.1291884 C51.9046089,31.3964928 52.2988827,31.6297536 52.5896648,31.8045942 C52.7723464,31.9142899 52.9546089,32.0244058 53.1368715,32.1378841 C53.1557263,32.1496522 45.5074022,44.0594058 35.0916201,46.5601304 C28.9378492,48.0387101 21.6682961,46.2486957 20.1955307,40.0754783 C20.1339385,39.8195217 20.1,39.5627246 20.0601955,39.3063478 C21.0414804,38.7221449 22.0449721,38.1858551 23.0539106,37.6886522 C25.6030726,36.5778261 27.5484637,35.7452319 28.2846369,35.4627971 C28.349162,35.4388406 28.4145251,35.4140435 28.4786313,35.3905072 C28.4798883,35.3905072 28.4815642,35.390087 28.4824022,35.390087 C28.4832402,35.390087 28.4832402,35.3892464 28.4844972,35.3884058 C34.5620112,33.1844058 39.6632682,32.4236812 39.6632682,32.4236812 C35.0304469,32.0231449 31.052514,32.3459275 27.7236034,33.0053623 C27.7223464,33.0036812 27.7189944,33.0028406 27.7189944,33.0028406 C27.7189944,33.0028406 27.6938547,33.0087246 27.6490223,33.0204928 C24.6347765,33.624029 22.1551676,34.5020145 20.2298883,35.3778986 C21.302514,30.9287101 25.1740223,27.0633043 29.7557263,25.9621449 C30.1583799,25.8654783 30.5664804,25.7906667 30.975838,25.7267826 C31.0935754,25.7087101 31.2108939,25.6927391 31.3290503,25.6771884 C31.647067,25.6338986 31.9667598,25.6002754 32.2885475,25.5742174 C32.3912011,25.5662319 32.4946927,25.5553043 32.5977654,25.5498406 C33.0092179,25.5237826 33.4219274,25.5107536 33.8363128,25.5124348 C33.9175978,25.5128551 33.9988827,25.5174783 34.0801676,25.5178986 C34.423743,25.522942 34.7673184,25.5363913 35.1113128,25.5582464 C35.2328212,25.5658116 35.3539106,25.5737971 35.474581,25.5834638 C35.5952514,25.5931304 35.7159218,25.6044783 35.8361732,25.6158261 C37.8087989,25.8196667 40.2322626,26.3492319 42.9188547,27.2621014 L42.9188547,18.5183913 C41.622486,18.1174348 40.2469274,17.729087 38.8189944,17.3777246 C35.0547486,16.374913 28.5909218,15.3073768 21.521648,17.0293043 C10.1513966,19.8002754 6.92681564,28.2123768 6.92681564,38.4918261 C6.92681564,39.8014493 7.03072626,41.0270145 7.22053073,42.1798696 C4.75223464,43.8147971 2.32793296,45.6922319 0.124441341,47.8348696 C0.124441341,47.8348696 3.40391061,46.3722609 7.73547486,44.4477536 C10.6269553,54.3203623 20.7129888,57.6414928 28.3081006,57.6414928 C36.2287709,57.6414928 41.3136872,55.3803333 47.3715084,51.6006667 L47.3715084,56.3881884 L60.7194134,56.3881884 L60.7194134,32.6397101 C60.7357542,32.6086087 60.752514,32.5779275 60.7696927,32.5459855 L60.7696927,32.1425072 C62.0396648,28.7482464 64.199581,27.8723623 66.6,27.8723623 C69.7726257,27.8723623 71.7548883,30.1255362 71.7548883,33.7059855 L71.7548883,56.3881884 L85.1027933,56.3881884 L85.1027933,29.8615942 C85.1027933,21.5100145 79.8821229,16.1408116 72.151257,16.1408116" id="Shape"></path>
                            <path d="M96.2878492,0.385405797 C92.2575419,0.385405797 89.4155028,3.2353913 89.4155028,7.27857971 C89.4155028,11.3217681 92.2575419,14.1713333 96.2878492,14.1713333 C100.318156,14.1713333 103.160615,11.3217681 103.160615,7.27857971 C103.160615,3.2353913 100.318156,0.385405797 96.2878492,0.385405797" id="Shape"></path>
                            <path d="M147.390084,34.8672464 L147.406425,34.8672464 L147.392179,17.9400725 L134.028352,17.9400725 L133.955447,20.3462319 C121.065084,12.0413043 112.836034,20.5820145 112.836034,20.5820145 C108.900419,24.1864203 106.61648,29.8771449 106.61648,37.0224928 C106.61648,49.6904493 114.20824,57.2262464 124.077235,57.2262464 C127.776117,57.2262464 131.183799,56.3881884 134.126397,52.3084348 C134.467458,53.2595507 135.226676,55.5883768 135.770531,56.3881884 L149.676955,56.3881884 C147.293296,52.4631014 147.31257,38.8528551 147.390084,34.8672464 M127.193296,46.2516377 C122.865084,46.2516377 119.813128,42.4841594 119.813128,37.138913 C119.813128,31.7936667 122.865084,28.0253478 127.193296,28.0253478 C130.228492,28.0253478 132.634358,29.880087 133.801676,32.830942 L133.801676,41.4460435 C132.634777,44.3968986 130.228492,46.2516377 127.193296,46.2516377" id="Shape"></path>
                        </g>
                    </g>
                </g>
            </g>
        </g>
    </g>
</svg>