<?xml version="1.0" encoding="utf-8"?>
<!DOCTYPE svg PUBLIC "-//W3C//DTD SVG 20010904//EN" "http://www.w3.org/TR/2001/REC-SVG-20010904/DTD/svg10.dtd">
<svg version="1.0" xmlns="http://www.w3.org/2000/svg" width="1024px" height="1024px" viewBox="0 0 1024 1024" preserveAspectRatio="xMidYMid meet">
 <g fill="#ffffff">
  <path d="M490 1021 c-3.6 -0.4 -11.3 -0.8 -17.2 -0.9 -5.9 0 -11.9 -0.6 -13.5 -1.2 -1.5 -0.6 -6.6 -1.5 -11.3 -1.9 -12.1 -1.2 -24 -2.9 -27.4 -4 -1.6 -0.6 -4.9 -1 -7.3 -1 -2.4 0 -5.4 -0.5 -6.6 -1.2 -1.2 -0.7 -4.4 -1.5 -7.2 -1.9 -9.3 -1.4 -17 -3.1 -18 -4 -0.5 -0.5 -2.3 -0.9 -4 -0.9 -1.6 -0.1 -4.1 -0.7 -5.5 -1.5 -1.4 -0.8 -3.7 -1.4 -5.2 -1.5 -1.5 0 -3 -0.4 -3.3 -1 -0.3 -0.5 -1.6 -1 -2.8 -1 -1.2 0 -3.5 -0.7 -5.1 -1.5 -1.5 -0.8 -3.8 -1.5 -5 -1.5 -1.1 0 -3 -0.7 -4 -1.5 -1.1 -0.8 -3 -1.5 -4.2 -1.5 -1.3 0 -2.6 -0.4 -2.9 -1 -0.3 -0.5 -1.3 -1 -2.2 -1 -1.5 0 -6.5 -1.9 -11.6 -4.6 -1.6 -0.8 -3.6 -1.4 -4.5 -1.4 -0.9 0 -3.9 -1.2 -6.7 -2.5 -2.7 -1.4 -5.5 -2.5 -6.1 -2.5 -0.6 0 -1.7 -0.7 -2.4 -1.5 -0.7 -0.8 -1.9 -1.5 -2.8 -1.5 -1.8 0 -29.9 -13.7 -30.7 -15.1 -0.4 -0.5 -1.3 -0.9 -2.1 -0.9 -0.8 0 -3.1 -1.1 -5.2 -2.3 -2 -1.3 -6.4 -3.9 -9.7 -5.7 -3.3 -1.8 -7.4 -4.3 -9.2 -5.6 -1.7 -1.3 -3.5 -2.4 -3.9 -2.4 -0.4 0 -2.2 -1.1 -4 -2.5 -1.8 -1.4 -3.5 -2.5 -3.8 -2.5 -0.5 0 -14.6 -9.7 -17.1 -11.8 -0.6 -0.5 -5.5 -4.1 -11 -8.2 -5.5 -4 -10.2 -7.6 -10.5 -7.9 -0.3 -0.4 -2.5 -2.2 -5 -4.1 -2.5 -1.9 -4.7 -3.7 -5 -4 -0.3 -0.3 -5 -4.5 -10.5 -9.2 -20.3 -17.5 -43.5 -41.5 -58.9 -60.8 -6.8 -8.5 -15.1 -19.3 -16.1 -20.9 -0.5 -0.9 -3.7 -5.5 -7.1 -10.1 -3.3 -4.7 -8.3 -12.1 -11 -16.5 -2.6 -4.4 -5.4 -8.5 -6 -9.2 -0.6 -0.6 -2.3 -3.5 -3.8 -6.5 -1.5 -2.9 -3.6 -6.6 -4.6 -8.3 -2 -3.2 -17.8 -34.7 -21.5 -43 -1.3 -2.7 -3.5 -7.6 -4.9 -10.7 -1.4 -3.1 -2.6 -6.3 -2.6 -7 0 -0.8 -0.7 -2.3 -1.5 -3.4 -0.8 -1 -1.5 -2.8 -1.5 -3.9 0 -1.1 -0.6 -2.9 -1.3 -4 -0.7 -1.1 -1.9 -4 -2.6 -6.5 -0.7 -2.5 -1.9 -6 -2.7 -7.8 -0.8 -1.8 -1.4 -4.1 -1.4 -5 0 -1 -0.4 -2.2 -0.9 -2.7 -1.1 -1.3 -4.1 -10.9 -4.1 -13.2 0 -1 -0.7 -3.1 -1.5 -4.7 -0.8 -1.5 -1.5 -3.8 -1.5 -5.1 0 -1.2 -0.7 -3.9 -1.5 -5.8 -0.8 -2 -1.5 -5 -1.5 -6.6 0 -1.6 -0.5 -3.3 -1 -3.6 -0.6 -0.3 -1 -2.2 -1 -4.1 0 -1.9 -0.7 -5.1 -1.5 -7.1 -0.8 -1.9 -1.5 -5.3 -1.5 -7.5 0 -2.2 -0.5 -4.8 -1.1 -6 -1.1 -2 -2.3 -10.2 -3.8 -25.8 -0.4 -4.7 -1.3 -10.1 -1.9 -12 -3.3 -10.9 -3.3 -99.1 0 -110 0.6 -1.9 1.5 -7.5 1.9 -12.5 1.2 -13.6 2.6 -23.2 3.8 -25.4 0.6 -1.1 1.1 -3.7 1.1 -5.9 0 -2.2 0.7 -5.6 1.5 -7.5 0.8 -2 1.5 -5.1 1.5 -7 0 -1.8 0.4 -3.7 0.9 -4.2 0.5 -0.6 1.1 -2.8 1.4 -5 0.2 -2.2 0.9 -5.5 1.6 -7.2 2.8 -8.1 3.4 -10 4.1 -13.8 1.2 -5.9 3.1 -11.9 4.1 -12.9 0.5 -0.6 0.9 -1.8 0.9 -2.8 0 -0.9 0.6 -3.2 1.4 -5 0.8 -1.8 2 -5.3 2.7 -7.8 0.7 -2.5 1.9 -5.4 2.6 -6.5 0.7 -1.1 1.3 -2.7 1.3 -3.6 0 -1 0.6 -3 1.4 -4.6 0.8 -1.5 2 -4.1 2.6 -5.8 1.1 -2.8 2.4 -5.8 4.8 -11.5 2 -4.8 7.3 -16.5 8.2 -18 0.5 -0.8 2.3 -4.4 4 -8 1.7 -3.6 3.5 -7.2 4 -8 0.5 -0.8 1.9 -3.3 3 -5.5 1.1 -2.2 2.9 -5.3 4 -7 1 -1.6 3.3 -5.8 5.1 -9.3 1.8 -3.4 3.6 -6.2 4.1 -6.2 0.4 0 0.8 -0.6 0.8 -1.4 0 -0.8 0.6 -2.1 1.3 -2.8 0.7 -0.7 3.2 -4.4 5.6 -8.3 6.1 -9.7 17.8 -25.8 28.6 -39.5 21.4 -27.1 58.6 -64.2 82.6 -82.5 13.3 -10.2 26 -19.5 26.4 -19.5 0.3 0 3 -1.8 6 -4 3 -2.2 5.7 -4 6 -4 0.4 0 2.1 -1.1 3.9 -2.5 1.8 -1.4 3.5 -2.5 3.8 -2.5 0.3 0 3 -1.6 5.9 -3.6 3 -2 6.3 -4 7.4 -4.5 1.1 -0.5 4.3 -2.3 7 -3.9 7.9 -4.7 39 -20 40.7 -20 0.9 0 2.1 -0.7 2.8 -1.5 0.7 -0.8 1.8 -1.5 2.5 -1.5 0.8 0 2.8 -0.8 4.7 -1.7 6.1 -3 6.8 -3.3 8.6 -3.3 1 0 2.7 -0.7 3.8 -1.5 1 -0.8 2.6 -1.5 3.5 -1.5 0.9 0 3 -0.7 4.5 -1.5 1.6 -0.8 3.7 -1.5 4.6 -1.5 0.9 0 2 -0.4 2.3 -1 0.3 -0.5 1.8 -1 3.3 -1 1.5 0 3.6 -0.7 4.6 -1.5 1.1 -0.8 3.2 -1.5 4.6 -1.5 1.4 0 3 -0.4 3.5 -0.9 0.6 -0.5 3.7 -1.6 7 -2.5 3.3 -0.9 7.4 -2.2 9 -2.7 1.7 -0.6 4.6 -1.5 6.5 -2 1.9 -0.4 6.4 -1.6 10 -2.4 3.6 -0.9 8.8 -2 11.7 -2.5 2.8 -0.4 5.8 -1.2 6.5 -1.6 0.7 -0.5 3.6 -1.2 6.3 -1.6 7.9 -1.1 16.7 -2.8 20.1 -3.9 1.7 -0.5 6.1 -0.9 9.8 -0.9 3.7 0 9.7 -0.6 13.4 -1.4 17.3 -3.7 93.2 -4 108.2 -0.4 2.5 0.6 9 1.4 14.5 1.8 5.5 0.5 13.4 1.5 17.5 2.5 4.1 0.9 10 1.9 13 2.3 3 0.4 6.1 1.1 6.8 1.6 0.7 0.4 3.7 1.2 6.5 1.6 2.9 0.5 8.1 1.6 11.7 2.5 3.6 0.8 8.1 2 10 2.4 1.9 0.5 4.9 1.4 6.5 2 1.7 0.5 5.7 1.8 9 2.7 3.3 0.9 6.4 2 7 2.5 0.5 0.5 2.1 0.9 3.5 0.9 1.4 0 3.5 0.7 4.6 1.5 1 0.8 3.1 1.5 4.6 1.5 1.5 0 3 0.5 3.3 1 0.3 0.6 1.4 1 2.3 1 0.9 0 3 0.7 4.6 1.5 1.5 0.8 3.6 1.5 4.5 1.5 0.9 0 2.5 0.7 3.5 1.5 1.1 0.8 2.8 1.5 3.8 1.5 1 0 2.6 0.4 3.6 0.9 0.9 0.4 3.5 1.6 5.7 2.6 2.2 0.9 4.7 2.1 5.5 2.6 0.8 0.5 2.2 1.2 3 1.5 0.8 0.3 2.4 0.9 3.5 1.4 4 1.5 33.1 16.2 38 19 2.8 1.6 5.9 3.4 7 3.9 1.1 0.5 4.4 2.5 7.4 4.5 2.9 2 5.6 3.6 5.9 3.6 0.3 0 1.9 1 3.6 2.3 1.7 1.3 3.8 2.6 4.6 3 2.3 1.1 23.5 16 31.8 22.4 21.6 16.7 44.7 37.8 62.2 56.8 9.7 10.5 20.2 22.4 22.5 25.5 1.1 1.5 3.4 4.5 5.2 6.6 12.7 15.7 35.3 48.6 40.4 58.9 1.1 2.2 2.8 5.4 3.9 7 4.5 7.1 22.9 45.3 28 58 0.6 1.7 1.8 4.3 2.6 5.8 0.8 1.6 1.4 3.6 1.4 4.6 0 0.9 0.6 2.5 1.3 3.6 0.7 1.1 1.9 4 2.6 6.5 0.7 2.5 1.9 6.1 2.6 8 3.8 10.7 4.7 13.8 6.5 21 0.4 1.9 1.3 4.9 1.8 6.5 3.3 9.7 3.6 10.9 6.1 24.2 0.5 2.8 1.4 6.1 2 7.2 0.6 1.1 1.1 3.8 1.1 6.1 0 2.3 0.5 5 1.1 6.1 1.1 2.1 2.4 10.7 3.8 25.5 0.5 5 1.3 10.6 1.9 12.5 3.5 11.5 3.2 96.1 -0.4 111.5 -0.8 3.3 -1.4 8.4 -1.4 11.4 0 2.9 -0.4 6.7 -0.9 8.4 -1 3.2 -2.8 13.3 -4 22.6 -0.4 3 -1.3 6.8 -1.9 8.3 -0.7 1.6 -1.2 4.3 -1.2 6.1 0 1.7 -0.4 3.6 -0.9 4.2 -0.5 0.5 -1.1 2.7 -1.4 4.9 -0.2 2.2 -1 5.6 -1.7 7.5 -2.6 7.6 -3.2 9.7 -4 13.5 -1.2 5.9 -3.1 11.9 -4.1 13 -0.5 0.5 -0.9 1.7 -0.9 2.7 0 0.9 -0.6 3.2 -1.4 5 -0.8 1.8 -2 5.3 -2.7 7.8 -0.7 2.5 -1.9 5.4 -2.6 6.5 -0.7 1.1 -1.3 2.7 -1.3 3.6 0 1 -0.6 3 -1.4 4.6 -0.8 1.5 -2 4.2 -2.6 5.8 -1.7 4.3 -3.4 8.2 -6.5 15 -1.5 3.3 -3.4 7.6 -4.2 9.5 -0.8 1.9 -1.9 4.2 -2.3 5 -0.5 0.8 -3.6 6.9 -7 13.5 -3.4 6.6 -7 13.4 -8 15 -1 1.7 -3.3 5.7 -5.1 9 -1.7 3.3 -3.5 6.2 -3.8 6.5 -0.4 0.3 -2.9 4.1 -5.6 8.5 -5.5 9.1 -15 22.7 -24.3 34.8 -3.5 4.5 -7.6 9.9 -9.2 12 -3 4 -11 13.2 -21.9 25.2 -8.7 9.6 -25.6 25.9 -37.6 36.3 -5.5 4.7 -10.2 8.9 -10.5 9.2 -0.3 0.3 -2.5 2.1 -5 4 -2.5 1.9 -4.7 3.7 -5 4.1 -0.3 0.3 -5 3.9 -10.5 7.9 -5.5 4 -10.1 7.7 -10.3 8.2 -0.2 0.4 -0.8 0.8 -1.3 0.8 -0.5 0 -4.3 2.5 -8.4 5.5 -4 3 -7.7 5.5 -8 5.5 -0.4 0 -2.1 1.1 -3.9 2.5 -1.8 1.4 -3.6 2.5 -4 2.5 -0.4 0 -2.2 1.1 -3.9 2.4 -3.5 2.6 -13.4 8.3 -21.2 12.2 -2.7 1.3 -5.8 2.9 -6.7 3.4 -9.5 5.3 -27.5 14 -29 14 -0.9 0 -2.1 0.7 -2.8 1.5 -0.7 0.8 -1.8 1.5 -2.5 1.5 -0.8 0 -2.8 0.8 -4.7 1.7 -6 3 -6.8 3.3 -8.2 3.3 -0.8 0 -2.7 0.6 -4.3 1.4 -5.1 2.7 -10.1 4.6 -11.6 4.6 -0.9 0 -1.9 0.5 -2.2 1 -0.3 0.6 -1.6 1 -2.9 1 -1.2 0 -3.1 0.7 -4.2 1.5 -1 0.8 -2.9 1.5 -4 1.5 -1.2 0 -3.5 0.7 -5 1.5 -1.6 0.8 -3.9 1.5 -5.1 1.5 -1.2 0 -2.5 0.5 -2.8 1 -0.3 0.6 -1.7 1 -3.1 1 -1.4 0 -3.5 0.5 -4.7 1.2 -1.2 0.6 -4 1.5 -6.2 1.9 -2.2 0.5 -6.9 1.6 -10.5 2.5 -3.6 0.9 -8.7 1.9 -11.5 2.3 -2.7 0.4 -6 1.2 -7.2 1.9 -1.2 0.7 -4.2 1.2 -6.6 1.2 -2.4 0 -5.7 0.4 -7.3 1 -3.5 1.1 -15.6 2.9 -27.5 4 -4.8 0.4 -9.3 1.1 -10 1.6 -2.8 1.8 -65.1 3.8 -75.9 2.4z m-1.9 -280.5 c17.8 -1.7 37.9 -4.9 40.9 -6.5 1 -0.5 2.9 -1 4.2 -1 1.3 0 4.3 -0.6 6.8 -1.4 2.5 -0.8 9.7 -3.1 16 -5.1 6.3 -2.1 14 -4.8 17 -6.1 3 -1.2 10 -4.2 15.5 -6.5 5.5 -2.3 11.1 -4.9 12.5 -5.9 1.4 -0.9 5 -3 8 -4.6 29.4 -15.5 63.6 -46.6 99.1 -90 10.8 -13.3 17.9 -22.4 22.4 -28.9 2.2 -3.1 6.1 -8.4 8.6 -11.8 9.6 -13 51.9 -77.5 51.9 -79.2 0 -0.2 2.9 -5.2 6.5 -11 8.2 -13.2 28 -48.3 35.8 -63.5 3.3 -6.3 8.3 -15.8 11.1 -21 4.8 -8.7 16 -31.2 26.8 -53.6 l4.4 -9.1 -3.6 -1 c-1.9 -0.6 -9.6 -3.2 -17 -5.8 -7.4 -2.6 -15.5 -5.3 -18 -6 -2.5 -0.7 -8.1 -2.5 -12.5 -3.8 -30 -9.4 -63.1 -18.7 -75.5 -21.3 -3.6 -0.8 -8.7 -2.1 -11.5 -2.9 -5.6 -1.7 -16.5 -4.2 -37 -8.4 -7.7 -1.6 -14.7 -3.2 -15.5 -3.5 -2.8 -1 -30.5 -5.5 -41 -6.6 -36.8 -3.9 -80.9 -4.9 -111.5 -2.5 -25 1.9 -39.2 3.6 -55 6.5 -12.9 2.3 -34.5 7.4 -39.5 9.3 -1.9 0.8 -7.3 2.6 -12 4.2 -9.8 3.2 -28.2 11.7 -37.3 17.1 -15.4 9.3 -36 23.5 -39.7 27.4 -0.3 0.3 -3 2.4 -6 4.7 -12.5 9.6 -41.6 41.3 -51.8 56.6 -23.8 35.5 -35.2 62.1 -43.7 102.2 -2.1 9.7 -2.7 15.8 -3.1 32 -0.6 20.1 -0.6 20.1 3.4 43.9 l0.7 3.9 3 -2.5 c11.4 -9.4 47.9 -29.9 73.5 -41.1 3.6 -1.6 7.2 -3.3 8.1 -3.7 0.9 -0.5 8.1 -3.4 16 -6.5 7.9 -3.1 15.3 -6 16.4 -6.5 1.1 -0.4 4 -1.5 6.5 -2.5 2.5 -1 5.4 -2.1 6.5 -2.6 3 -1.3 24.2 -8.8 30 -10.6 2.8 -0.8 6.1 -1.9 7.5 -2.5 2.5 -1 26.8 -9 32.5 -10.7 1.7 -0.5 5.7 -1.7 9 -2.6 3.3 -0.9 9.2 -2.7 13 -4 8.2 -2.7 24.5 -7.4 29.5 -8.6 1.9 -0.4 10.9 -2.8 20 -5.3 16.3 -4.6 23.2 -6.5 38.2 -10.5 4.3 -1.2 9.3 -2.1 11.3 -2.1 3.3 0 3.5 0.2 3.5 3.5 0 2.4 -0.5 3.5 -1.5 3.5 -0.8 0 -2 0.9 -2.7 2 -0.7 1.1 -1.7 2 -2.2 2 -3.5 0 -43.2 15.9 -83.1 33.2 -14.9 6.5 -21.3 9.4 -34 15.3 -10.6 4.9 -60.4 29.7 -68.5 34 -15.7 8.5 -28.5 15.5 -34 18.6 -3 1.7 -7.3 4.1 -9.5 5.4 -10.1 5.7 -12.9 7.3 -26.8 15.6 -8.1 4.9 -15.2 8.9 -15.7 8.9 -0.6 0 -1 0.3 -1 0.8 0 0.4 -1.7 1.6 -3.7 2.7 -2.1 1.1 -4 2.3 -4.3 2.6 -0.3 0.4 -3 2.1 -6 3.9 -12.2 7.4 -82.9 55.1 -88.5 59.8 -0.5 0.4 -3.7 2.8 -6.9 5.2 -3.3 2.4 -6.7 4.9 -7.5 5.6 -3.2 2.5 -38.4 28.9 -39.8 29.9 -0.9 0.6 -2.6 2 -3.9 3.3 -1.3 1.2 -2.7 2.2 -3.2 2.2 -0.6 0 -1.2 0.7 -1.6 1.5 -0.3 0.9 3.2 -0.4 9.2 -3.4 24.3 -12.2 55.1 -26.4 68.7 -31.7 4.9 -1.9 11.6 -4.7 14.8 -6 18.2 -7.9 41.6 -14.4 54.9 -15.1 l10.7 -0.6 9.8 10.3 c5.4 5.7 10.5 10.9 11.3 11.6 0.8 0.7 5.1 4.2 9.5 7.9 15.6 13 36.2 24.9 57 33 3.9 1.5 8.4 3.3 10 4 7 3.1 33.2 9 46 10.5 5.5 0.6 13.2 1.5 17 1.9 11.3 1.3 23.4 1.2 40.6 -0.4z"/>
 </g>
 <g fill="#32a752">
  <path d="M461 744.9 c-14 -0.6 -23.2 -1.4 -29.6 -2.4 -1.7 -0.3 -5.3 -0.7 -8 -1 -2.7 -0.3 -7.4 -1 -10.4 -1.7 -3 -0.6 -6.2 -1.2 -7 -1.3 -0.8 -0.1 -2.8 -0.7 -4.3 -1.4 -1.6 -0.6 -3.5 -1.1 -4.4 -1.1 -2 0 -11.8 -2.8 -15.8 -4.5 -1.6 -0.7 -6.1 -2.5 -10 -4 -20.8 -8.1 -41.4 -20 -57 -33 -4.4 -3.7 -8.7 -7.2 -9.5 -7.9 -0.8 -0.7 -5.9 -5.9 -11.3 -11.5 l-9.7 -10.3 -8 0.6 c-10.9 1 -36.4 8.3 -51.7 15 -3.2 1.3 -9.9 4.1 -14.8 6 -14.6 5.7 -36.7 16 -80.5 37.4 -14.6 7.2 -21.3 10.8 -30 16.4 -1.5 1 -3.2 1.3 -4.5 0.9 -1.6 -0.7 -1.1 -1.3 3.5 -4.3 3 -2 7 -5 8.8 -6.7 1.8 -1.7 3.7 -3.1 4.1 -3.1 0.4 0 2.3 -1.5 4.2 -3.3 1.9 -1.7 4.8 -4.1 6.4 -5.1 3 -1.9 3.9 -2.6 8.6 -6.8 1.5 -1.3 3.3 -2.7 4.2 -3.3 1.4 -1 36.6 -27.4 39.8 -29.9 0.8 -0.7 4.2 -3.2 7.5 -5.6 3.2 -2.4 6.4 -4.8 6.9 -5.2 5.6 -4.7 76.3 -52.4 88.5 -59.8 3 -1.8 5.7 -3.5 6 -3.9 0.3 -0.3 2.2 -1.5 4.3 -2.6 2 -1.1 3.7 -2.3 3.7 -2.7 0 -0.5 0.4 -0.8 1 -0.8 0.5 0 7.6 -4 15.7 -8.9 13.9 -8.3 16.7 -9.9 26.8 -15.6 2.2 -1.3 6.5 -3.7 9.5 -5.4 5.5 -3.1 18.3 -10.1 34 -18.6 8.1 -4.3 57.9 -29.1 68.5 -34 22.1 -10.3 47.1 -21.1 76.5 -33.3 18.7 -7.7 38.7 -15.2 40.6 -15.2 0.5 0 1.5 -0.9 2.2 -2 0.7 -1.1 2 -2 2.9 -2 0.9 0 1.4 -0.2 1.1 -0.5 -0.3 -0.3 -3.9 0.3 -7.9 1.5 -8.8 2.4 -8.8 2.4 -16.4 4.4 -3.3 0.8 -9.1 2.5 -13 3.6 -3.8 1.2 -8.1 2.3 -9.5 2.6 -1.4 0.3 -5.6 1.4 -9.5 2.6 -3.8 1.1 -8.6 2.3 -10.5 2.8 -4.8 1 -20.9 5.7 -30 8.7 -4.1 1.3 -8.8 2.8 -10.5 3.3 -10.3 2.9 -16.4 4.7 -28 8.5 -7.1 2.4 -14.1 4.8 -15.5 5.3 -1.4 0.6 -4.7 1.7 -7.5 2.5 -2.7 0.8 -8.1 2.7 -12 4.2 -3.8 1.5 -7.4 2.8 -8 2.9 -1.9 0.4 -6 1.8 -9 3.1 -1.6 0.7 -5 2 -7.5 3 -2.5 0.9 -5.4 2.1 -6.5 2.5 -1.1 0.5 -8.5 3.4 -16.4 6.5 -7.9 3.1 -15.1 6 -16 6.5 -0.9 0.4 -4.5 2.1 -8.1 3.7 -26.7 11.7 -58.8 29.9 -76.7 43.4 -2.2 1.7 -4.6 2.8 -5.2 2.5 -0.6 -0.4 -1.1 -2.5 -1.1 -4.6 0 -2.1 -0.4 -5 -0.9 -6.3 -0.6 -1.4 -1.3 -5.1 -1.6 -8.4 -0.4 -3.2 -0.9 -6.6 -1.1 -7.5 -0.7 -2.5 -0.7 -32.2 0.1 -41.3 1.3 -16.7 8.2 -44.9 15.8 -64.5 7.6 -19.7 16.2 -35.8 30.9 -57.7 10.2 -15.3 39.3 -47 51.8 -56.6 3 -2.3 5.7 -4.4 6 -4.7 3.7 -3.9 24.3 -18.1 39.7 -27.4 9.1 -5.4 27.5 -13.9 37.3 -17.1 4.7 -1.6 10.1 -3.4 12 -4.2 5 -1.9 26.6 -7 39.5 -9.3 32.2 -5.9 68 -8.4 108 -7.6 17.1 0.3 33 0.8 35.5 1 2.5 0.3 7.7 0.7 11.5 1 18.2 1.3 53.1 6.2 58.5 8.2 0.8 0.3 7.8 1.9 15.5 3.5 20.5 4.2 31.4 6.7 37 8.4 2.8 0.8 7.9 2.1 11.5 2.9 12.4 2.6 45.5 11.9 75.5 21.3 4.4 1.3 10 3.1 12.5 3.8 9.1 2.7 37.9 12.7 39.7 13.8 0.8 0.5 -0.4 3.9 -4.1 11.5 -2.9 5.9 -9.3 18.8 -14.1 28.7 -4.9 9.9 -11.2 22.3 -14.1 27.5 -2.8 5.2 -7.8 14.7 -11.1 21 -7.8 15.2 -27.6 50.3 -35.8 63.5 -3.6 5.8 -6.5 10.8 -6.5 11 0 1.7 -42.3 66.2 -51.9 79.2 -2.5 3.4 -6.4 8.7 -8.6 11.8 -14 20.1 -43.8 55.1 -62.4 73.4 -8.3 8.1 -27.4 24.6 -35.6 30.6 -6.1 4.6 -17.4 11.7 -23.5 14.9 -3 1.6 -6.6 3.7 -8 4.6 -1.4 1 -7 3.6 -12.5 5.9 -5.5 2.3 -12.5 5.3 -15.5 6.5 -3 1.3 -10.7 4 -17 6.1 -6.3 2 -13.5 4.3 -16 5.1 -2.5 0.8 -5.3 1.4 -6.3 1.4 -1 0 -3.9 0.7 -6.5 1.5 -8.1 2.6 -33.7 6.2 -45.2 6.4 -1.9 0 -4.8 0.4 -6.5 0.8 -1.6 0.5 -9.5 0.5 -17.5 0.2z"/>
 </g>
</svg>