<svg width="100" height="125" viewBox="0 0 100 125" fill="none" xmlns="http://www.w3.org/2000/svg">
<path d="M68.8001 24.5001C69.2001 24.3001 69.3001 23.8001 69.2001 23.4001C69.1001 23.0001 68.7001 22.7001 68.2001 22.7001C66.1001 22.7001 64.1001 21.8001 62.9001 20.1001C61.8001 18.6001 61.5001 16.7001 62.2001 14.9001C62.4001 14.5001 62.2001 14.0001 61.9001 13.8001C61.5001 13.5001 61.1001 13.5001 60.7001 13.8001C59.0001 15.0001 56.8001 15.4001 54.9001 14.7001C53.0001 14.1001 51.6001 12.7001 51.0001 10.8001C50.9001 10.4001 50.5001 10.1001 50.0001 10.1001C49.5001 10.1001 49.2001 10.4001 49.0001 10.8001C48.4001 12.6001 47.0001 14.0001 45.1001 14.7001C43.1001 15.4001 40.9001 15.0001 39.3001 13.8001C38.9001 13.5001 38.5001 13.5001 38.1001 13.8001C37.7001 14.1001 37.6001 14.5001 37.8001 14.9001C38.5001 16.7001 38.2001 18.5001 37.1001 20.1001C35.9001 21.8001 33.9001 22.7001 31.8001 22.7001C31.3001 22.7001 31.0001 23.0001 30.8001 23.4001C30.6001 23.8001 30.8001 24.3001 31.2001 24.5001C32.9001 25.6001 33.9001 27.4001 33.9001 29.3001C33.9001 31.2001 32.9001 33.0001 31.2001 34.1001C30.8001 34.3001 30.7001 34.8001 30.8001 35.2001C30.9001 35.6001 31.4001 35.9001 31.8001 35.9001C33.9001 35.8001 35.9001 36.8001 37.1001 38.5001C38.2001 40.0001 38.5001 41.9001 37.8001 43.7001C37.6001 44.1001 37.8001 44.6001 38.1001 44.8001C38.5001 45.1001 38.9001 45.1001 39.3001 44.8001C41.0001 43.6001 43.2001 43.2001 45.1001 43.9001C47.0001 44.5001 48.4001 45.9001 49.0001 47.8001C49.1001 48.2001 49.5001 48.5001 50.0001 48.5001C50.5001 48.5001 50.8001 48.2001 51.0001 47.8001C51.6001 46.0001 53.0001 44.6001 54.9001 43.9001C56.9001 43.2001 59.1001 43.6001 60.7001 44.8001C61.1001 45.1001 61.5001 45.1001 61.9001 44.8001C62.3001 44.5001 62.4001 44.1001 62.2001 43.7001C61.5001 41.9001 61.8001 40.1001 62.9001 38.5001C64.1001 36.8001 66.1001 35.9001 68.2001 35.9001C68.7001 35.9001 69.0001 35.6001 69.2001 35.2001C69.4001 34.8001 69.2001 34.3001 68.8001 34.1001C67.1001 33.0001 66.1001 31.2001 66.1001 29.3001C66.1001 27.3001 67.1001 25.6001 68.8001 24.5001ZM65.9001 34.2001C64.0001 34.7001 62.4001 35.8001 61.3001 37.4001C60.3001 38.8001 59.8001 40.5001 59.9001 42.2001C58.1001 41.5001 56.1001 41.5001 54.2001 42.1001C52.4001 42.7001 51.0001 43.8001 50.0001 45.3001C49.0001 43.8001 47.6001 42.7001 45.8001 42.1001C44.9001 41.8001 44.0001 41.7001 43.1001 41.7001C42.1001 41.7001 41.1001 41.9001 40.1001 42.2001C40.2001 40.5001 39.7001 38.8001 38.7001 37.4001C37.6001 35.8001 35.9001 34.7001 34.1001 34.2001C35.3001 32.8001 35.9001 31.1001 35.9001 29.3001C35.9001 27.5001 35.3001 25.8001 34.1001 24.4001C36.0001 23.9001 37.6001 22.8001 38.7001 21.2001C39.7001 19.8001 40.2001 18.1001 40.1001 16.4001C41.9001 17.1001 43.9001 17.1001 45.8001 16.5001C47.6001 15.9001 49.0001 14.8001 50.0001 13.3001C51.0001 14.8001 52.4001 15.9001 54.2001 16.5001C56.1001 17.1001 58.1001 17.1001 59.9001 16.4001C59.8001 18.1001 60.3001 19.8001 61.3001 21.2001C62.4001 22.8001 64.1001 23.9001 65.9001 24.4001C64.7001 25.8001 64.1001 27.5001 64.1001 29.3001C64.1001 31.1001 64.8001 32.8001 65.9001 34.2001Z" fill="black"/>
<path d="M40.0996 29.2999C40.0996 23.876 44.5758 19.3999 49.9996 19.3999C55.4235 19.3999 59.8996 23.876 59.8996 29.2999C59.8996 34.7238 55.4235 39.1999 49.9996 39.1999C44.5758 39.1999 40.0996 34.7238 40.0996 29.2999ZM41.0996 29.2999C41.0996 34.176 45.1235 38.1999 49.9996 38.1999C54.8758 38.1999 58.8996 34.176 58.8996 29.2999C58.8996 24.4238 54.8758 20.3999 49.9996 20.3999C45.1235 20.3999 41.0996 24.4238 41.0996 29.2999Z" fill="#EBCB8B" stroke="black"/>
<path d="M11 90.0001H89C89.6 90.0001 90 89.6001 90 89.0001C90 88.4001 89.6 88.0001 89 88.0001H81.3V79.3001C81.6 79.3001 81.9 79.3001 82.2 79.3001C83.9 79.3001 86.4 79.0001 88 77.3001C90.6 74.7001 89.9 69.9001 89.8 69.7001C89.7 69.3001 89.4 68.9001 89 68.9001C88.8 68.9001 84 68.1001 81.4 70.7001L81.3 70.8001V68.3001C82.3 67.4001 85 65.0001 85 61.9001C85 58.2001 81.1 55.3001 80.9 55.2001C80.6 55.0001 80.1 55.0001 79.7 55.2001C79.5 55.3001 75.6 58.2001 75.6 61.9001C75.6 65.0001 78.3 67.4001 79.3 68.3001V76.6001C79.3 76.5001 79.2 76.5001 79.2 76.4001C76.6 73.8001 71.8 74.5001 71.6 74.6001C71.2 74.7001 70.8 75.0001 70.8 75.4001C70.8 75.6001 70 80.4001 72.6 83.0001C74.2 84.6001 76.7 85.0001 78.4 85.0001C78.8 85.0001 79.1 85.0001 79.3 85.0001V88.0001H62V77.3001C62.3 77.3001 62.6 77.3001 62.9 77.3001C64.6 77.3001 67.1 77.0001 68.7 75.3001C71.3 72.7001 70.6 67.9001 70.5 67.7001C70.4 67.3001 70.1 66.9001 69.7 66.9001C69.5 66.9001 64.7 66.1001 62.1 68.7001C62 68.8001 62 68.9001 62 68.9001V60.6001C63 59.7001 65.7 57.3001 65.7 54.2001C65.7 50.5001 61.8 47.6001 61.6 47.5001C61.3 47.3001 60.8 47.3001 60.4 47.5001C60.2 47.6001 56.3 50.5001 56.3 54.2001C56.3 57.2001 58.9 59.7001 60 60.6001V63.1001L59.9 63.0001C57.3 60.4001 52.5 61.1001 52.3 61.2001C51.9 61.3001 51.5 61.6001 51.5 62.0001C51.5 62.2001 50.7 67.0001 53.3 69.6001C54.9 71.2001 57.4 71.6001 59.1 71.6001C59.4 71.6001 59.8 71.6001 60 71.6001V76.4001L59.9 76.3001C57.3 73.7001 52.5 74.4001 52.3 74.5001C51.9 74.6001 51.5 74.9001 51.5 75.3001C51.5 75.5001 50.7 80.3001 53.3 82.9001C54.9 84.5001 57.4 84.9001 59.1 84.9001C59.4 84.9001 59.8 84.9001 60 84.9001V88.0001H40V79.3001C40.3 79.3001 40.6 79.3001 40.9 79.3001C42.6 79.3001 45.1 79.0001 46.7 77.3001C49.3 74.7001 48.6 69.9001 48.5 69.7001C48.4 69.3001 48.1 68.9001 47.7 68.9001C47.5 68.9001 42.7 68.1001 40.1 70.7001L40 70.8001V68.3001C41 67.4001 43.7 65.0001 43.7 61.9001C43.7 58.2001 39.8 55.3001 39.6 55.2001C39.3 55.0001 38.8 55.0001 38.4 55.2001C38.2 55.3001 34.3 58.2001 34.3 61.9001C34.3 65.0001 37 67.4001 38 68.3001V76.6001C38 76.5001 37.9 76.5001 37.9 76.4001C35.3 73.8001 30.5 74.5001 30.3 74.6001C29.9 74.7001 29.5 75.0001 29.5 75.4001C29.5 75.6001 28.7 80.4001 31.3 83.0001C32.9 84.6001 35.4 85.0001 37.1 85.0001C37.5 85.0001 37.8 85.0001 38 85.0001V88.0001H20.7V77.3001C21 77.3001 21.3 77.3001 21.6 77.3001C23.3 77.3001 25.8 77.0001 27.4 75.3001C30 72.7001 29.3 67.9001 29.2 67.7001C29.1 67.3001 28.8 66.9001 28.4 66.9001C28.2 66.9001 23.4 66.1001 20.8 68.7001C20.7 68.8001 20.7 68.8001 20.7 68.9001V60.6001C21.7 59.7001 24.4 57.3001 24.4 54.2001C24.4 50.5001 20.5 47.6001 20.3 47.5001C20 47.3001 19.5 47.3001 19.1 47.5001C18.9 47.6001 15 50.5001 15 54.2001C15 57.2001 17.6 59.7001 18.7 60.6001V63.1001L18.6 63.0001C16 60.4001 11.2 61.1001 11 61.2001C10.6 61.3001 10.2 61.6001 10.2 62.0001C10.2 62.2001 9.4 67.0001 12 69.6001C13.6 71.2001 16.1 71.6001 17.8 71.6001C18.1 71.6001 18.5 71.6001 18.7 71.6001V76.4001L18.6 76.3001C16 73.7001 11.2 74.4001 11 74.5001C10.6 74.6001 10.2 74.9001 10.2 75.3001C10.2 75.5001 9.4 80.3001 12 82.9001C13.6 84.5001 16.1 84.9001 17.8 84.9001C18.1 84.9001 18.5 84.9001 18.7 84.9001V88.0001H11C10.4 88.0001 10 88.4001 10 89.0001C10 89.6001 10.4 90.0001 11 90.0001ZM82.8 72.2001C84.2 70.8001 86.7 70.8001 87.9 70.8001C88 72.0001 87.9 74.6001 86.5 75.9001C85.1 77.2001 82.6 77.3001 81.4 77.3001C81.4 76.1001 81.4 73.6001 82.8 72.2001ZM79.1 83.1001C77.9 83.2001 75.3 83.1001 74 81.7001C72.7 80.3001 72.6 77.8001 72.6 76.6001C73.8 76.5001 76.4 76.6001 77.7 78.0001C79.1 79.4001 79.2 81.9001 79.1 83.1001ZM77.6 62.0001C77.6 60.0001 79.3 58.2001 80.3 57.4001C81.2 58.2001 83 60.0001 83 62.0001C83 64.0001 81.3 65.8001 80.3 66.6001C79.2 65.7001 77.6 63.8001 77.6 62.0001ZM63.5 70.2001C64.9 68.8001 67.4 68.8001 68.6 68.8001C68.7 70.0001 68.6 72.6001 67.2 73.9001C65.8 75.3001 63.3 75.3001 62 75.2001C62.1 73.9001 62.2 71.5001 63.5 70.2001ZM59.8 69.5001C58.4 69.6001 56 69.5001 54.7 68.1001C53.3 66.7001 53.3 64.2001 53.4 62.9001C54.8 62.8001 57.2 62.9001 58.5 64.3001C59.8 65.8001 59.9 68.3001 59.8 69.5001ZM59.8 82.7001C58.6 82.8001 56.1 82.7001 54.7 81.3001C53.3 79.9001 53.3 77.4001 53.3 76.2001C54.5 76.1001 57 76.2001 58.4 77.6001C59.8 79.0001 59.9 81.5001 59.8 82.7001ZM58.3 54.2001C58.3 52.2001 60 50.4001 61 49.6001C61.9 50.4001 63.7 52.2001 63.7 54.2001C63.7 56.2001 62 58.0001 61 58.8001C59.9 57.9001 58.3 56.1001 58.3 54.2001ZM41.6 72.2001C43 70.8001 45.5 70.8001 46.7 70.8001C46.8 72.0001 46.7 74.6001 45.3 75.9001C43.9 77.2001 41.4 77.3001 40.2 77.3001C40.1 76.1001 40.2 73.6001 41.6 72.2001ZM37.8 83.1001C36.6 83.2001 34.1 83.1001 32.7 81.7001C31.3 80.3001 31.3 77.8001 31.3 76.6001C32.5 76.5001 35.1 76.6001 36.4 78.0001C37.7 79.4001 37.9 81.9001 37.8 83.1001ZM36.4 62.0001C36.4 60.0001 38.1 58.2001 39.1 57.4001C40 58.2001 41.8 60.0001 41.8 62.0001C41.8 64.0001 40.1 65.8001 39.1 66.6001C38 65.7001 36.4 63.8001 36.4 62.0001ZM22.3 70.2001C23.7 68.8001 26.2 68.8001 27.4 68.8001C27.5 70.0001 27.4 72.6001 26 73.9001C24.6 75.3001 22.1 75.3001 20.8 75.2001C20.8 73.9001 21 71.5001 22.3 70.2001ZM18.5 69.5001C17.1 69.6001 14.7 69.5001 13.4 68.1001C12 66.8001 11.9 64.3001 12 63.0001C13.4 62.9001 15.8 63.0001 17.1 64.4001C18.6 65.8001 18.6 68.3001 18.5 69.5001ZM18.5 82.7001C17.3 82.8001 14.8 82.7001 13.4 81.3001C12 80.0001 11.9 77.5001 12 76.2001C13.2 76.1001 15.8 76.2001 17.1 77.6001C18.6 79.0001 18.6 81.5001 18.5 82.7001ZM17 54.2001C17 52.2001 18.7 50.4001 19.7 49.6001C20.6 50.4001 22.4 52.2001 22.4 54.2001C22.4 56.2001 20.7 58.0001 19.7 58.8001C18.6 57.9001 17 56.1001 17 54.2001Z" fill="black"/>
<circle cx="50.5" cy="30.5" r="7.5" fill="#EACA8B"/>
</svg>
