<svg viewBox="0 0 80 80" fill="none" xmlns="http://www.w3.org/2000/svg">
<path d="M58.8001 14.5001C59.2001 14.3001 59.3001 13.8001 59.2001 13.4001C59.1001 13.0001 58.7001 12.7001 58.2001 12.7001C56.1001 12.7001 54.1001 11.8001 52.9001 10.1001C51.8001 8.6001 51.5001 6.7001 52.2001 4.9001C52.4001 4.5001 52.2001 4.0001 51.9001 3.8001C51.5001 3.5001 51.1001 3.5001 50.7001 3.8001C49.0001 5.0001 46.8001 5.4001 44.9001 4.7001C43.0001 4.1001 41.6001 2.7001 41.0001 0.800097C40.9001 0.400097 40.5001 0.100098 40.0001 0.100098C39.5001 0.100098 39.2001 0.400097 39.0001 0.800097C38.4001 2.6001 37.0001 4.0001 35.1001 4.7001C33.1001 5.4001 30.9001 5.0001 29.3001 3.8001C28.9001 3.5001 28.5001 3.5001 28.1001 3.8001C27.7001 4.1001 27.6001 4.5001 27.8001 4.9001C28.5001 6.7001 28.2001 8.5001 27.1001 10.1001C25.9001 11.8001 23.9001 12.7001 21.8001 12.7001C21.3001 12.7001 21.0001 13.0001 20.8001 13.4001C20.6001 13.8001 20.8001 14.3001 21.2001 14.5001C22.9001 15.6001 23.9001 17.4001 23.9001 19.3001C23.9001 21.2001 22.9001 23.0001 21.2001 24.1001C20.8001 24.3001 20.7001 24.8001 20.8001 25.2001C20.9001 25.6001 21.4001 25.9001 21.8001 25.9001C23.9001 25.8001 25.9001 26.8001 27.1001 28.5001C28.2001 30.0001 28.5001 31.9001 27.8001 33.7001C27.6001 34.1001 27.8001 34.6001 28.1001 34.8001C28.5001 35.1001 28.9001 35.1001 29.3001 34.8001C31.0001 33.6001 33.2001 33.2001 35.1001 33.9001C37.0001 34.5001 38.4001 35.9001 39.0001 37.8001C39.1001 38.2001 39.5001 38.5001 40.0001 38.5001C40.5001 38.5001 40.8001 38.2001 41.0001 37.8001C41.6001 36.0001 43.0001 34.6001 44.9001 33.9001C46.9001 33.2001 49.1001 33.6001 50.7001 34.8001C51.1001 35.1001 51.5001 35.1001 51.9001 34.8001C52.3001 34.5001 52.4001 34.1001 52.2001 33.7001C51.5001 31.9001 51.8001 30.1001 52.9001 28.5001C54.1001 26.8001 56.1001 25.9001 58.2001 25.9001C58.7001 25.9001 59.0001 25.6001 59.2001 25.2001C59.4001 24.8001 59.2001 24.3001 58.8001 24.1001C57.1001 23.0001 56.1001 21.2001 56.1001 19.3001C56.1001 17.3001 57.1001 15.6001 58.8001 14.5001ZM55.9001 24.2001C54.0001 24.7001 52.4001 25.8001 51.3001 27.4001C50.3001 28.8001 49.8001 30.5001 49.9001 32.2001C48.1001 31.5001 46.1001 31.5001 44.2001 32.1001C42.4001 32.7001 41.0001 33.8001 40.0001 35.3001C39.0001 33.8001 37.6001 32.7001 35.8001 32.1001C34.9001 31.8001 34.0001 31.7001 33.1001 31.7001C32.1001 31.7001 31.1001 31.9001 30.1001 32.2001C30.2001 30.5001 29.7001 28.8001 28.7001 27.4001C27.6001 25.8001 25.9001 24.7001 24.1001 24.2001C25.3001 22.8001 25.9001 21.1001 25.9001 19.3001C25.9001 17.5001 25.3001 15.8001 24.1001 14.4001C26.0001 13.9001 27.6001 12.8001 28.7001 11.2001C29.7001 9.8001 30.2001 8.1001 30.1001 6.4001C31.9001 7.1001 33.9001 7.1001 35.8001 6.5001C37.6001 5.9001 39.0001 4.8001 40.0001 3.3001C41.0001 4.8001 42.4001 5.9001 44.2001 6.5001C46.1001 7.1001 48.1001 7.1001 49.9001 6.4001C49.8001 8.1001 50.3001 9.8001 51.3001 11.2001C52.4001 12.8001 54.1001 13.9001 55.9001 14.4001C54.7001 15.8001 54.1001 17.5001 54.1001 19.3001C54.1001 21.1001 54.8001 22.8001 55.9001 24.2001Z" fill="black"/>
<path d="M30.0996 19.2999C30.0996 13.876 34.5758 9.3999 39.9996 9.3999C45.4235 9.3999 49.8996 13.876 49.8996 19.2999C49.8996 24.7238 45.4235 29.1999 39.9996 29.1999C34.5758 29.1999 30.0996 24.7238 30.0996 19.2999ZM31.0996 19.2999C31.0996 24.176 35.1235 28.1999 39.9996 28.1999C44.8758 28.1999 48.8996 24.176 48.8996 19.2999C48.8996 14.4238 44.8758 10.3999 39.9996 10.3999C35.1235 10.3999 31.0996 14.4238 31.0996 19.2999Z" fill="#EBCB8B" stroke="black"/>
<path d="M1 80.0001H79C79.6 80.0001 80 79.6001 80 79.0001C80 78.4001 79.6 78.0001 79 78.0001H71.3V69.3001C71.6 69.3001 71.9 69.3001 72.2 69.3001C73.9 69.3001 76.4 69.0001 78 67.3001C80.6 64.7001 79.9 59.9001 79.8 59.7001C79.7 59.3001 79.4 58.9001 79 58.9001C78.8 58.9001 74 58.1001 71.4 60.7001L71.3 60.8001V58.3001C72.3 57.4001 75 55.0001 75 51.9001C75 48.2001 71.1 45.3001 70.9 45.2001C70.6 45.0001 70.1 45.0001 69.7 45.2001C69.5 45.3001 65.6 48.2001 65.6 51.9001C65.6 55.0001 68.3 57.4001 69.3 58.3001V66.6001C69.3 66.5001 69.2 66.5001 69.2 66.4001C66.6 63.8001 61.8 64.5001 61.6 64.6001C61.2 64.7001 60.8 65.0001 60.8 65.4001C60.8 65.6001 60 70.4001 62.6 73.0001C64.2 74.6001 66.7 75.0001 68.4 75.0001C68.8 75.0001 69.1 75.0001 69.3 75.0001V78.0001H52V67.3001C52.3 67.3001 52.6 67.3001 52.9 67.3001C54.6 67.3001 57.1 67.0001 58.7 65.3001C61.3 62.7001 60.6 57.9001 60.5 57.7001C60.4 57.3001 60.1 56.9001 59.7 56.9001C59.5 56.9001 54.7 56.1001 52.1 58.7001C52 58.8001 52 58.9001 52 58.9001V50.6001C53 49.7001 55.7 47.3001 55.7 44.2001C55.7 40.5001 51.8 37.6001 51.6 37.5001C51.3 37.3001 50.8 37.3001 50.4 37.5001C50.2 37.6001 46.3 40.5001 46.3 44.2001C46.3 47.2001 48.9 49.7001 50 50.6001V53.1001L49.9 53.0001C47.3 50.4001 42.5 51.1001 42.3 51.2001C41.9 51.3001 41.5 51.6001 41.5 52.0001C41.5 52.2001 40.7 57.0001 43.3 59.6001C44.9 61.2001 47.4 61.6001 49.1 61.6001C49.4 61.6001 49.8 61.6001 50 61.6001V66.4001L49.9 66.3001C47.3 63.7001 42.5 64.4001 42.3 64.5001C41.9 64.6001 41.5 64.9001 41.5 65.3001C41.5 65.5001 40.7 70.3001 43.3 72.9001C44.9 74.5001 47.4 74.9001 49.1 74.9001C49.4 74.9001 49.8 74.9001 50 74.9001V78.0001H30V69.3001C30.3 69.3001 30.6 69.3001 30.9 69.3001C32.6 69.3001 35.1 69.0001 36.7 67.3001C39.3 64.7001 38.6 59.9001 38.5 59.7001C38.4 59.3001 38.1 58.9001 37.7 58.9001C37.5 58.9001 32.7 58.1001 30.1 60.7001L30 60.8001V58.3001C31 57.4001 33.7 55.0001 33.7 51.9001C33.7 48.2001 29.8 45.3001 29.6 45.2001C29.3 45.0001 28.8 45.0001 28.4 45.2001C28.2 45.3001 24.3 48.2001 24.3 51.9001C24.3 55.0001 27 57.4001 28 58.3001V66.6001C28 66.5001 27.9 66.5001 27.9 66.4001C25.3 63.8001 20.5 64.5001 20.3 64.6001C19.9 64.7001 19.5 65.0001 19.5 65.4001C19.5 65.6001 18.7 70.4001 21.3 73.0001C22.9 74.6001 25.4 75.0001 27.1 75.0001C27.5 75.0001 27.8 75.0001 28 75.0001V78.0001H10.7V67.3001C11 67.3001 11.3 67.3001 11.6 67.3001C13.3 67.3001 15.8 67.0001 17.4 65.3001C20 62.7001 19.3 57.9001 19.2 57.7001C19.1 57.3001 18.8 56.9001 18.4 56.9001C18.2 56.9001 13.4 56.1001 10.8 58.7001C10.7 58.8001 10.7 58.8001 10.7 58.9001V50.6001C11.7 49.7001 14.4 47.3001 14.4 44.2001C14.4 40.5001 10.5 37.6001 10.3 37.5001C10 37.3001 9.5 37.3001 9.1 37.5001C8.9 37.6001 5 40.5001 5 44.2001C5 47.2001 7.6 49.7001 8.7 50.6001V53.1001L8.6 53.0001C6 50.4001 1.2 51.1001 1 51.2001C0.6 51.3001 0.2 51.6001 0.2 52.0001C0.2 52.2001 -0.6 57.0001 2 59.6001C3.6 61.2001 6.1 61.6001 7.8 61.6001C8.1 61.6001 8.5 61.6001 8.7 61.6001V66.4001L8.6 66.3001C6 63.7001 1.2 64.4001 1 64.5001C0.6 64.6001 0.2 64.9001 0.2 65.3001C0.2 65.5001 -0.6 70.3001 2 72.9001C3.6 74.5001 6.1 74.9001 7.8 74.9001C8.1 74.9001 8.5 74.9001 8.7 74.9001V78.0001H1C0.4 78.0001 0 78.4001 0 79.0001C0 79.6001 0.4 80.0001 1 80.0001ZM72.8 62.2001C74.2 60.8001 76.7 60.8001 77.9 60.8001C78 62.0001 77.9 64.6001 76.5 65.9001C75.1 67.2001 72.6 67.3001 71.4 67.3001C71.4 66.1001 71.4 63.6001 72.8 62.2001ZM69.1 73.1001C67.9 73.2001 65.3 73.1001 64 71.7001C62.7 70.3001 62.6 67.8001 62.6 66.6001C63.8 66.5001 66.4 66.6001 67.7 68.0001C69.1 69.4001 69.2 71.9001 69.1 73.1001ZM67.6 52.0001C67.6 50.0001 69.3 48.2001 70.3 47.4001C71.2 48.2001 73 50.0001 73 52.0001C73 54.0001 71.3 55.8001 70.3 56.6001C69.2 55.7001 67.6 53.8001 67.6 52.0001ZM53.5 60.2001C54.9 58.8001 57.4 58.8001 58.6 58.8001C58.7 60.0001 58.6 62.6001 57.2 63.9001C55.8 65.3001 53.3 65.3001 52 65.2001C52.1 63.9001 52.2 61.5001 53.5 60.2001ZM49.8 59.5001C48.4 59.6001 46 59.5001 44.7 58.1001C43.3 56.7001 43.3 54.2001 43.4 52.9001C44.8 52.8001 47.2 52.9001 48.5 54.3001C49.8 55.8001 49.9 58.3001 49.8 59.5001ZM49.8 72.7001C48.6 72.8001 46.1 72.7001 44.7 71.3001C43.3 69.9001 43.3 67.4001 43.3 66.2001C44.5 66.1001 47 66.2001 48.4 67.6001C49.8 69.0001 49.9 71.5001 49.8 72.7001ZM48.3 44.2001C48.3 42.2001 50 40.4001 51 39.6001C51.9 40.4001 53.7 42.2001 53.7 44.2001C53.7 46.2001 52 48.0001 51 48.8001C49.9 47.9001 48.3 46.1001 48.3 44.2001ZM31.6 62.2001C33 60.8001 35.5 60.8001 36.7 60.8001C36.8 62.0001 36.7 64.6001 35.3 65.9001C33.9 67.2001 31.4 67.3001 30.2 67.3001C30.1 66.1001 30.2 63.6001 31.6 62.2001ZM27.8 73.1001C26.6 73.2001 24.1 73.1001 22.7 71.7001C21.3 70.3001 21.3 67.8001 21.3 66.6001C22.5 66.5001 25.1 66.6001 26.4 68.0001C27.7 69.4001 27.9 71.9001 27.8 73.1001ZM26.4 52.0001C26.4 50.0001 28.1 48.2001 29.1 47.4001C30 48.2001 31.8 50.0001 31.8 52.0001C31.8 54.0001 30.1 55.8001 29.1 56.6001C28 55.7001 26.4 53.8001 26.4 52.0001ZM12.3 60.2001C13.7 58.8001 16.2 58.8001 17.4 58.8001C17.5 60.0001 17.4 62.6001 16 63.9001C14.6 65.3001 12.1 65.3001 10.8 65.2001C10.8 63.9001 11 61.5001 12.3 60.2001ZM8.5 59.5001C7.1 59.6001 4.7 59.5001 3.4 58.1001C2 56.8001 1.9 54.3001 2 53.0001C3.4 52.9001 5.8 53.0001 7.1 54.4001C8.6 55.8001 8.6 58.3001 8.5 59.5001ZM8.5 72.7001C7.3 72.8001 4.8 72.7001 3.4 71.3001C2 70.0001 1.9 67.5001 2 66.2001C3.2 66.1001 5.8 66.2001 7.1 67.6001C8.6 69.0001 8.6 71.5001 8.5 72.7001ZM7 44.2001C7 42.2001 8.7 40.4001 9.7 39.6001C10.6 40.4001 12.4 42.2001 12.4 44.2001C12.4 46.2001 10.7 48.0001 9.7 48.8001C8.6 47.9001 7 46.1001 7 44.2001Z" fill="black"/>
<circle cx="40.5" cy="20.5" r="7.5" fill="#EACA8B"/>
</svg>
