<svg width="32" height="31" viewBox="0 0 32 31" fill="none" xmlns="http://www.w3.org/2000/svg">
<path d="M0.571739 15.7671C0.48874 15.6841 0.476861 15.528 0.54195 15.4353L0.571732 15.4055L0.571739 15.4055L15.0758 0.901373L15.0824 0.894828L15.0887 0.888045C15.5542 0.386712 16.3523 0.383294 16.8193 0.807326L16.8624 0.850481L16.8624 0.850491L31.4174 15.4055C31.5275 15.5156 31.5275 15.657 31.4174 15.7671C31.3344 15.8501 31.1783 15.862 31.0856 15.7969L31.0558 15.7671L29.3255 14.0368L28.4719 13.1832V14.3903V29.6069C28.4719 29.8906 28.2378 30.1248 27.9541 30.1248H3.52614C3.24247 30.1248 3.00831 29.8906 3.00831 29.6069V14.8993V13.6921L2.15475 14.5457L0.933356 15.7671C0.823269 15.8772 0.681826 15.8772 0.571739 15.7671ZM15.6183 1.11844L15.5457 1.15472L15.4884 1.2121L3.6815 13.019L3.53506 13.1654V13.3725V29.098V29.598H4.03506H11.1599H11.6599V29.098V18.9197C11.6599 18.636 11.894 18.4019 12.1777 18.4019H19.8115C20.0951 18.4019 20.3293 18.636 20.3293 18.9197V29.098V29.598H20.8293H27.4452H27.9452V29.098V12.8636V12.6565L27.7988 12.51L16.5517 1.26299C16.2637 0.97499 15.8657 0.994735 15.6183 1.11844ZM19.8025 19.4286V18.9286H19.3025H12.6866H12.1866V19.4286V29.098V29.598H12.6866H19.3025H19.8025V29.098V19.4286Z" />
</svg>
