<svg width="40" height="32" viewBox="0 0 40 32" fill="none" xmlns="http://www.w3.org/2000/svg">
<path d="M39.84 21.04L34.16 1.36C33.88 0.56 33.12 0 32.28 0H7.72C6.84 0 6.08 0.56 5.8 1.4L0.12 21C0.04 21.32 0 21.64 0 21.96V28.8C0 30.56 1.44 32 3.2 32H36.8C38.56 32 40 30.56 40 28.8V21.96C40 21.64 39.96 21.32 39.84 21.04ZM7.36 1.88C7.4 1.72 7.56 1.6 7.72 1.6H32.28C32.44 1.6 32.56 1.68 32.64 1.84L37.72 19.36C37.4 19.24 37.12 19.2 36.8 19.2H3.2C2.88 19.2 2.6 19.24 2.28 19.36L7.36 1.88ZM38.4 28.8C38.4 29.68 37.68 30.4 36.8 30.4H3.2C2.32 30.4 1.6 29.68 1.6 28.8V22.4C1.6 21.52 2.32 20.8 3.2 20.8H36.8C37.68 20.8 38.4 21.52 38.4 22.4V28.8ZM8 25.6C8 26.48 7.28 27.2 6.4 27.2C5.52 27.2 4.8 26.48 4.8 25.6C4.8 24.72 5.52 24 6.4 24C7.28 24 8 24.72 8 25.6ZM12.8 25.6C12.8 26.48 12.08 27.2 11.2 27.2C10.32 27.2 9.6 26.48 9.6 25.6C9.6 24.72 10.32 24 11.2 24C12.08 24 12.8 24.72 12.8 25.6ZM17.6 25.6C17.6 26.48 16.88 27.2 16 27.2C15.12 27.2 14.4 26.48 14.4 25.6C14.4 24.72 15.12 24 16 24C16.88 24 17.6 24.72 17.6 25.6ZM20.8 24H35.2V25.6H20.8V24Z" />
</svg>
