<svg width="34" height="34" viewBox="0 0 34 34" fill="none" xmlns="http://www.w3.org/2000/svg">
<path d="M22.7182 0.863589L22.7173 0.863515C19.3565 0.591019 16.0386 1.77164 13.6739 4.1814C11.9775 5.87811 10.8517 8.10021 10.468 10.4609C8.10909 10.843 5.92902 11.9263 4.18793 13.6674C2.27942 15.5759 1.09804 18.1202 0.87072 20.8014C0.598129 23.8466 1.55295 26.8011 3.50666 29.1183C5.46024 31.4353 8.23279 32.8904 11.2789 33.1178C14.6394 33.3901 17.9571 32.2095 20.3216 29.7999C22.018 28.1032 23.1444 25.9236 23.5279 23.5204C25.8867 23.1381 28.0666 22.0549 29.8076 20.3139C31.716 18.4055 32.8973 15.8614 33.1247 13.1805C33.7154 6.95136 29.0327 1.40873 22.7182 0.863589ZM10.3486 11.899C10.267 14.7277 11.1772 17.4613 13.0378 19.6762L13.038 19.6765C14.9915 21.9934 17.764 23.4484 20.8099 23.6759C21.2798 23.7151 21.7166 23.7205 22.1773 23.6923C21.793 25.6729 20.8038 27.4802 19.447 28.837C17.4237 30.8603 14.5654 32.0036 11.4866 31.7398C5.9444 31.256 1.85401 26.4182 2.2934 20.8761C2.51359 18.4122 3.56911 16.2579 5.19613 14.6309C6.59747 13.2295 8.36737 12.2795 10.3486 11.899ZM20.9277 22.2531L20.9272 22.2531C15.4803 21.8173 11.4144 17.107 11.7257 11.6721C12.2028 11.6399 12.6798 11.6436 13.1569 11.6834C18.6051 12.1631 22.6699 16.8745 22.3594 22.2645C21.8822 22.2967 21.405 22.2929 20.9277 22.2531ZM28.8906 19.3487L28.8889 19.3504C27.4878 20.7515 25.7182 21.7015 23.7374 22.0821C23.9359 16.0407 19.3833 10.7996 13.2758 10.3054C12.8054 10.2662 12.3681 10.2607 11.9069 10.289C12.2903 8.27033 13.2795 6.50273 14.638 5.14427C16.6613 3.12093 19.5197 1.97764 22.5985 2.2415C28.1422 2.72553 32.2753 7.56451 31.7917 13.1046C31.5715 15.5702 30.5152 17.768 28.8906 19.3487Z" />
</svg>
