<svg width="512" height="512" viewBox="0 0 512 512" fill="none" xmlns="http://www.w3.org/2000/svg">
<path d="M160 0H0V160H160V0ZM128 128H32V32H128V128Z" fill="white"/>
<path d="M96 64H64V96H96V64Z" fill="white"/>
<path d="M352 0V160H512V0H352ZM480 128H384V32H480V128Z" fill="white"/>
<path d="M448 64H416V96H448V64Z" fill="white"/>
<path d="M0 512H160V352H0V512ZM32 384H128V480H32V384Z" fill="white"/>
<path d="M96 416H64V448H96V416Z" fill="white"/>
<path d="M320 0H256V32H320V0Z" fill="white"/>
<path d="M256 128H288V96H320V64H224V32H192V64V80V96H256V128Z" fill="white"/>
<path d="M224 128H192V160H224V128Z" fill="white"/>
<path d="M320 160H288V192H192V224H320V160Z" fill="white"/>
<path d="M32 288H64V256H32V192H0V320H32V288Z" fill="white"/>
<path d="M96 192H64V224H96V192Z" fill="white"/>
<path d="M192 320H256V288H224V256H160V192H128V256H96V320H128V288H144H160H192V320Z" fill="white"/>
<path d="M320 256H288V320H320V256Z" fill="white"/>
<path d="M288 352H192V384H256V480H192V512H288V480H352V448H288V352Z" fill="white"/>
<path d="M224 416H192V448H224V416Z" fill="white"/>
<path d="M352 352H320V416H352V352Z" fill="white"/>
<path d="M480 416H384V512H416V448H480V416Z" fill="white"/>
<path d="M512 480H448V512H512V480Z" fill="white"/>
<path d="M512 352H480V384H512V352Z" fill="white"/>
<path d="M384 384H416V288H352V320H384V384Z" fill="white"/>
<path d="M448 224H416V192H384V224H352V256H480V224H512V192H448V224Z" fill="white"/>
<path d="M512 288H448V320H512V288Z" fill="white"/>
</svg>
