<svg width="32" height="32" viewBox="0 0 32 32" fill="none" xmlns="http://www.w3.org/2000/svg">
<path fill-rule="evenodd" clip-rule="evenodd" d="M0 6.16763V0.289398L11.7689 6.91533C14.7018 8.56657 16.6199 11.5366 16.9494 14.8439C17.8047 13.6615 18.9158 12.6558 20.2311 11.9153L32 5.2894V11.1676C32 14.8274 30.0314 18.2043 26.8467 20.0075L17 25.583V30H22C22.5523 30 23 30.4477 23 31C23 31.5523 22.5523 32 22 32H17H15H10C9.44771 32 9 31.5523 9 31C9 30.4477 9.44771 30 10 30H15V26.7154V20.8636V20.583L5.15328 15.0075C1.96858 13.2043 0 9.82741 0 6.16763ZM25.8613 18.2672L17 23.2846V21.7154V20.8636C17 17.8774 18.6101 15.1231 21.2123 13.6581L30 8.71059V11.1676C30 14.1069 28.419 16.8189 25.8613 18.2672ZM15 15.8636V16V18.2846L6.13872 13.2672C3.58101 11.8189 2 9.10688 2 6.16763V3.71059L10.7877 8.65811C13.3899 10.1231 15 12.8774 15 15.8636Z" fill="current" stroke="transparent" />
</svg>
