<svg width="33" height="32" viewBox="0 0 33 32" fill="none" xmlns="http://www.w3.org/2000/svg">
<path fill-rule="evenodd" clip-rule="evenodd" d="M19.2363 0C17.9723 0 16.8439 0.792292 16.4146 1.98119L12.0751 14H3.20593C0.98684 14 -0.464199 16.3258 0.511416 18.3189L6.3853 30.3189C6.88889 31.3477 7.93437 32 9.07981 32H9.84875H18.7945H19.7642C21.0282 32 22.1566 31.2077 22.5859 30.0188L31.9735 4.01881C32.6795 2.06336 31.2308 0 29.1518 0H19.2363ZM21.3823 27.4631L30.0923 3.3396C30.3277 2.68779 29.8448 2 29.1518 2H19.2363C18.815 2 18.4389 2.2641 18.2958 2.6604L14.1124 14.2468C14.7565 14.5258 15.2951 15.0274 15.6151 15.6811L21.3823 27.4631ZM11.353 16H3.20593C2.46623 16 1.98255 16.7753 2.30776 17.4396L7.21412 27.4631L11.353 16ZM9.84875 30C9.15574 30 8.67283 29.3122 8.90818 28.6604L13.4292 16.139C13.5943 16.2365 13.7311 16.3813 13.8188 16.5604L19.6926 28.5604C20.0179 29.2247 19.5342 30 18.7945 30H9.84875Z" fill="current"/>
</svg>
