<svg width="32" height="32" viewBox="0 0 32 32" fill="none" xmlns="http://www.w3.org/2000/svg">
<path fill-rule="evenodd" clip-rule="evenodd" d="M11.2993 2.81594C5.66168 4.82005 2.03173 10.1439 2.00024 15.9174C2.00247 15.9447 2.0036 15.9722 2.0036 16C2.0036 16.7897 2.41373 17.6386 3.36231 18.4872C4.31173 19.3365 5.72934 20.1142 7.52677 20.7224C8.86583 21.1755 10.3931 21.5269 12.0523 21.7452C13.3049 21.91 14.6293 21.9986 16.0002 21.9986C16.5524 21.9986 17 22.4462 17 22.9983C17 23.5505 16.5524 23.9981 16.0002 23.9981C14.5438 23.9981 13.1323 23.904 11.7915 23.7276C10.0175 23.4942 8.36155 23.1158 6.88585 22.6164C5.29886 22.0794 3.89342 21.3933 2.77251 20.5763C3.39092 22.3691 4.34278 23.9605 5.53726 25.302C5.90444 25.7144 5.8678 26.3464 5.45543 26.7135C5.04306 27.0807 4.41111 27.0441 4.04393 26.6317C2.497 24.8944 1.30693 22.7915 0.623792 20.4091C-1.8113 11.9169 3.09894 3.05862 11.5911 0.623526C13.2499 0.147888 14.9245 -0.0476817 16.5634 0.0097262C16.6647 0.0132745 16.7619 0.0317743 16.8531 0.0630303C18.6132 0.34394 20.1083 1.6001 21.2531 3.28905C21.5629 3.7461 21.4435 4.36776 20.9864 4.67755C20.5294 4.98734 19.9077 4.86795 19.5979 4.41089C18.4741 2.75283 17.247 2.00339 16.1058 2.00339C14.5307 2.00339 12.7882 3.46667 11.4713 6.53802C11.2556 7.041 11.0558 7.57858 10.8744 8.14723C10.4888 9.35575 10.1878 10.6993 9.99263 12.1408C9.91854 12.6879 9.41493 13.0714 8.86777 12.9974C8.32061 12.9233 7.93711 12.4197 8.01119 11.8725C8.22063 10.3256 8.5457 8.86773 8.9695 7.53945C9.1691 6.91387 9.39097 6.31588 9.63358 5.75005C10.0967 4.66984 10.6548 3.66927 11.2993 2.81594ZM27.7275 5.11645C27.3516 4.71202 26.719 4.68889 26.3146 5.06479C25.9101 5.4407 25.887 6.07329 26.2629 6.47772C27.5516 7.8642 28.5755 9.53191 29.2281 11.4238C28.3196 10.7616 27.227 10.1875 26.0089 9.70966C25.5774 9.5404 25.128 9.3824 24.6628 9.23628C23.205 8.7784 21.5847 8.43506 19.8576 8.22824C19.6254 8.20043 19.3912 8.17509 19.1552 8.15227C18.1354 8.05364 17.0802 8.00194 16.0002 8.00194C15.4481 8.00194 15.0005 8.44955 15.0005 9.0017C15.0005 9.55385 15.4481 10.0015 16.0002 10.0015C17.0166 10.0015 18.0075 10.0501 18.9627 10.1425C19.1837 10.1639 19.4028 10.1876 19.6198 10.2136C21.2365 10.4072 22.7348 10.7265 24.0636 11.1439C24.487 11.2769 24.8926 11.4196 25.2787 11.5711C26.8346 12.1814 28.0436 12.9208 28.8477 13.7089C29.6482 14.4933 29.9968 15.2702 29.9968 16C29.9968 16.0281 29.998 16.056 30.0003 16.0835C29.9689 21.7557 26.4645 26.9936 20.9954 29.0758C21.0503 29.0012 21.1046 28.9256 21.1581 28.849C22.46 26.986 23.437 24.4191 23.9814 21.4932C24.0824 20.9504 23.7242 20.4285 23.1814 20.3274C22.6386 20.2264 22.1166 20.5846 22.0156 21.1274C21.5067 23.8628 20.6126 26.1389 19.5191 27.7036C18.4151 29.2834 17.2199 29.9966 16.1058 29.9966C14.9828 29.9966 13.7771 29.2716 12.6665 27.6662C12.3523 27.2121 11.7296 27.0987 11.2755 27.4128C10.8214 27.727 10.708 28.3497 11.0221 28.8038C12.1071 30.3722 13.5008 31.5528 15.1311 31.895C15.254 31.9543 15.3912 31.9893 15.5365 31.9934C17.1437 32.0397 18.7842 31.8425 20.4094 31.3765C28.9016 28.9414 33.8118 20.083 31.3767 11.5909C30.6602 9.09199 29.386 6.90086 27.7275 5.11645ZM15.0005 16C15.0005 15.4479 15.4481 15.0002 16.0002 15.0002C16.5524 15.0002 17 15.4479 17 16C17 16.5522 16.5524 16.9998 16.0002 16.9998C15.4481 16.9998 15.0005 16.5522 15.0005 16ZM16.0002 13.0007C14.3438 13.0007 13.0009 14.3436 13.0009 16C13.0009 17.6565 14.3438 18.9993 16.0002 18.9993C17.6567 18.9993 18.9995 17.6565 18.9995 16C18.9995 14.3436 17.6567 13.0007 16.0002 13.0007Z" fill="current" stroke="transparent" />
</svg>
