<svg width="36" height="36" viewBox="0 0 36 36" fill="none" xmlns="http://www.w3.org/2000/svg">
<path d="M7.49238 27.802C6.06709 26.2763 4.95363 24.4147 4.28866 22.2887C1.9201 14.7161 6.13878 6.65725 13.7113 4.28868C15.1919 3.82558 16.6911 3.61429 18.1628 3.63067M17.9265 32.3701C19.3694 32.3771 20.838 32.1651 22.2887 31.7114C29.8612 29.3428 34.0799 21.2839 31.7113 13.7114C31.0139 11.4816 29.8231 9.54256 28.2966 7.97691" fill="transparent" stroke="current" stroke-width="1.5" stroke-linecap="round"/>
<path d="M11.7609 14.1744C11.9386 12.743 12.2135 11.4011 12.5689 10.186C12.7363 9.61398 12.9214 9.07004 13.1227 8.55808C14.3089 5.54033 16.0541 3.63362 17.9999 3.63362C19.4171 3.63362 20.7278 4.645 21.7937 6.36039M24.0535 23.0873C23.1283 28.5107 20.7669 32.3664 17.9999 32.3664C16.6053 32.3664 15.3138 31.387 14.2572 29.7211" fill="transparent" stroke="current" stroke-width="1.5" stroke-linecap="round"/>
<path d="M18 24.471C16.6457 24.471 15.3352 24.3866 14.093 24.2288C12.4486 24.02 10.9238 23.6826 9.57552 23.2422C5.97519 22.0663 3.63361 20.1563 3.63361 18M18 11.529C19.0042 11.529 19.9842 11.5754 20.9303 11.6637C21.1492 11.6842 21.3663 11.7068 21.5814 11.7317C23.1831 11.9168 24.6769 12.2232 26.0117 12.6279C26.4373 12.7569 26.8468 12.8959 27.2385 13.0442C30.3737 14.2313 32.3664 16.0108 32.3664 18" fill="transparent" stroke="current" stroke-width="1.5" stroke-linecap="round"/>
</svg>
