<svg width="18" height="18" viewBox="0 0 18 18" fill="none" xmlns="http://www.w3.org/2000/svg">
<path fill-rule="evenodd" clip-rule="evenodd" d="M9.25 3C9.25 2.58579 9.58579 2.25 10 2.25H14.75C15.3023 2.25 15.75 2.69772 15.75 3.25V8C15.75 8.41421 15.4142 8.75 15 8.75C14.5858 8.75 14.25 8.41421 14.25 8V4.81066L8.53033 10.5303C8.23744 10.8232 7.76256 10.8232 7.46967 10.5303C7.17678 10.2374 7.17678 9.76256 7.46967 9.46967L13.1893 3.75H10C9.58579 3.75 9.25 3.41421 9.25 3ZM4 5.75C3.86193 5.75 3.75 5.86193 3.75 6V14C3.75 14.1381 3.86193 14.25 4 14.25H12C12.1381 14.25 12.25 14.1381 12.25 14V10C12.25 9.58579 12.5858 9.25 13 9.25C13.4142 9.25 13.75 9.58579 13.75 10V14C13.75 14.9665 12.9665 15.75 12 15.75H4C3.0335 15.75 2.25 14.9665 2.25 14V6C2.25 5.0335 3.0335 4.25 4 4.25H8C8.41421 4.25 8.75 4.58579 8.75 5C8.75 5.41421 8.41421 5.75 8 5.75H4Z" fill="current" stroke="transparent"/>
</svg>
