<svg width="32" height="32" viewBox="0 0 32 32" fill="none" xmlns="http://www.w3.org/2000/svg">
<path fill-rule="evenodd" clip-rule="evenodd" d="M30 16C30 23.732 23.732 30 16 30C8.26801 30 2 23.732 2 16C2 8.26801 8.26801 2 16 2C23.732 2 30 8.26801 30 16ZM32 16C32 24.8366 24.8366 32 16 32C7.16344 32 0 24.8366 0 16C0 7.16344 7.16344 0 16 0C24.8366 0 32 7.16344 32 16ZM18.2929 8.2929C18.6834 7.90237 19.3166 7.90237 19.7071 8.2929L23.3657 11.9515C24.1216 12.7074 23.5862 14 22.5172 14L9 14C8.44772 14 8 13.5523 8 13C8 12.4477 8.44772 12 9 12L20.5858 12L18.2929 9.70711C17.9024 9.31658 17.9024 8.68342 18.2929 8.2929ZM13.7071 23.7071C13.3166 24.0976 12.6834 24.0976 12.2929 23.7071L8.63432 20.0485C7.87836 19.2926 8.41376 18 9.48284 18H23C23.5523 18 24 18.4477 24 19C24 19.5523 23.5523 20 23 20H11.4142L13.7071 22.2929C14.0976 22.6834 14.0976 23.3166 13.7071 23.7071Z" fill="current" stroke="transparent" />
</svg>
