<svg width="40" height="40" viewBox="0 0 40 40" fill="none" xmlns="http://www.w3.org/2000/svg">
<path fill-rule="evenodd" clip-rule="evenodd" d="M16.6582 23.2632L20.7429 23.9924C21.8317 24.1867 22.8798 23.4866 23.1171 22.4063V22.4063C23.3477 21.3567 22.7327 20.3062 21.7046 19.9933L13.4305 17.4759C12.432 17.1721 11.3498 17.5206 10.7162 18.35L10.6241 18.4705L9.14582 19.9638C8.77056 20.3429 8.28389 20.592 7.75694 20.6747L5.05664 21.0987C3.65948 21.3181 2.72231 22.6518 2.98941 24.0406L3.61086 27.272C3.83724 28.449 4.86721 29.2998 6.06587 29.2998L11.2914 29.2998C11.6203 29.2998 11.9459 29.3647 12.2497 29.4908L18.1692 31.9474C19.0109 32.2967 19.9601 32.2475 20.7591 31.8093C23.5816 30.2612 30.543 26.4499 35.3005 23.9048C36.2609 23.3911 36.6706 22.229 36.2415 21.228V21.228C35.8203 20.2452 34.7257 19.7383 33.7038 20.0528L22.5008 23.4996" fill="current" stroke="transparent" stroke-width="2" stroke-linecap="round"/>
<path fill-rule="evenodd" clip-rule="evenodd" d="M22 7V14" fill="current" stroke="transparent" stroke-width="2" stroke-linecap="round"/>
<path fill-rule="evenodd" clip-rule="evenodd" d="M26 9L22.7071 5.70711C22.3166 5.31658 21.6834 5.31658 21.2929 5.70711L18 9" fill="current" stroke="transparent" stroke-width="2" stroke-linecap="round"/>
</svg>
