<svg width="18" height="18" viewBox="0 0 18 18" fill="none" xmlns="http://www.w3.org/2000/svg">
<path fill-rule="evenodd" clip-rule="evenodd" d="M9 16.25C13.0041 16.25 16.25 13.0041 16.25 9C16.25 4.99594 13.0041 1.75 9 1.75C4.99594 1.75 1.75 4.99593 1.75 9C1.75 13.0041 4.99594 16.25 9 16.25ZM17.75 9C17.75 13.8325 13.8325 17.75 9 17.75C4.16751 17.75 0.250001 13.8325 0.250002 9C0.250004 4.1675 4.16751 0.249996 9 0.249998C13.8325 0.249999 17.75 4.16751 17.75 9Z" fill="current" stroke="transparent"/>
<path fill-rule="evenodd" clip-rule="evenodd" d="M10.9284 6.25L4.99994 6.25C4.58573 6.25 4.24994 6.58578 4.24994 7C4.24994 7.41421 4.58573 7.75 4.99994 7.75L12.5856 7.75C13.4274 7.75 13.8085 6.69749 13.1618 6.1586L10.4801 3.92383C10.1619 3.65866 9.68895 3.70165 9.42378 4.01986C9.1586 4.33807 9.2016 4.81099 9.5198 5.07617L10.9284 6.25Z" fill="current" stroke="transparent"/>
<path fill-rule="evenodd" clip-rule="evenodd" d="M4.8382 11.8414C4.19154 11.3025 4.5726 10.25 5.41437 10.25L13.0001 10.25C13.4143 10.25 13.7501 10.5858 13.7501 11C13.7501 11.4142 13.4143 11.75 13.0001 11.75L7.0716 11.75L8.4802 12.9238C8.7984 13.189 8.8414 13.6619 8.57622 13.9801C8.31105 14.2983 7.83813 14.3413 7.51992 14.0762L4.8382 11.8414Z" fill="current" stroke="transparent"/>
</svg>
