<svg width="37" height="30" viewBox="0 0 37 30" fill="none" xmlns="http://www.w3.org/2000/svg">
<path fill-rule="evenodd" clip-rule="evenodd" d="M22.4142 0.999849C21.6331 0.218799 20.3668 0.218802 19.5857 0.999849L16.2928 4.29274C15.9023 4.68327 15.9023 5.31643 16.2928 5.70696C16.6834 6.09748 17.3165 6.09748 17.707 5.70696L19.9999 3.41406V9.99985C19.9999 10.5521 20.4477 10.9998 20.9999 10.9998C21.5522 10.9998 21.9999 10.5521 21.9999 9.99985V3.41406L24.2928 5.70696C24.6834 6.09748 25.3165 6.09748 25.707 5.70696C26.0976 5.31643 26.0976 4.68327 25.707 4.29274L22.4142 0.999849ZM32.4079 15.0968C33.9184 14.632 35.5363 15.3812 36.1588 16.8338C36.793 18.3134 36.1867 20.0287 34.7704 20.7863C30.0181 23.3286 23.0611 27.1375 20.2382 28.6859C19.1715 29.2709 17.9043 29.3356 16.7841 28.8708L10.8646 26.4141C10.6823 26.3385 10.4869 26.2996 10.2896 26.2996L5.06407 26.2996C3.38594 26.2996 1.94397 25.1085 1.62705 23.4606L1.0056 20.2292C0.63166 18.2849 1.9437 16.4177 3.89973 16.1106L6.60002 15.6866C6.91619 15.637 7.20819 15.4875 7.43335 15.2601L8.86659 13.8123L8.91971 13.7427C9.80676 12.5816 11.3218 12.0937 12.7198 12.519L20.9939 15.0364C22.298 15.4332 23.1546 16.6292 23.1637 17.941L32.4079 15.0968ZM21.9436 20.4089C21.2869 20.903 20.4349 21.1318 19.5654 20.9766L15.4806 20.2474C14.9369 20.1503 14.5749 19.6309 14.6719 19.0872C14.769 18.5435 15.2884 18.1814 15.8321 18.2785L19.9168 19.0077C20.4771 19.1077 21.0165 18.7474 21.1386 18.1915C21.2572 17.6514 20.9408 17.1108 20.4117 16.9498L12.1376 14.4324C11.5385 14.2501 10.8892 14.4592 10.509 14.9569L10.3781 15.1283L8.85468 16.6671C8.32931 17.1978 7.64797 17.5466 6.91024 17.6624L4.20995 18.0864C3.37165 18.218 2.80935 19.0182 2.96961 19.8515L3.59106 23.0829C3.72688 23.7891 4.34487 24.2996 5.06407 24.2996L10.2896 24.2996C10.75 24.2996 11.2059 24.3904 11.6312 24.5669L17.5507 27.0235C18.1139 27.2573 18.7451 27.2237 19.2764 26.9323C22.0984 25.3844 29.0642 21.5707 33.827 19.0228C34.3314 18.753 34.5445 18.1442 34.3206 17.6217C34.1007 17.1088 33.5294 16.8442 32.996 17.0083L21.9436 20.4089Z" fill="current"/>
</svg>
