<svg width="26" height="32" viewBox="0 0 26 32" fill="none" xmlns="http://www.w3.org/2000/svg">
<path fill-rule="evenodd" clip-rule="evenodd" d="M13.3668 1.15972L13.4037 0.160403C13.4034 0.160392 13.4037 0.160403 13.3668 1.15972ZM19.846 11.2602C20.7697 11.6433 20.7701 11.6424 20.7702 11.6421L20.7709 11.6405L20.7727 11.6361L20.7783 11.6223L20.7969 11.5756C20.8125 11.5361 20.8341 11.4803 20.8603 11.4096C20.9128 11.2683 20.9841 11.067 21.0633 10.8182C21.2211 10.3226 21.4132 9.62892 21.5475 8.8396C21.8071 7.31506 21.8941 5.19251 20.815 3.5103C19.7359 1.82808 17.7703 1.02216 16.2764 0.622416C15.503 0.41545 14.7924 0.300798 14.2761 0.237573C14.0169 0.205842 13.8042 0.186765 13.6539 0.175524C13.5787 0.169899 13.519 0.166223 13.4767 0.163903L13.4264 0.161361L13.4115 0.160712L13.4067 0.160518L13.4037 0.160403L12.7093 0.134766L12.4431 0.7766L13.3668 1.15972C12.4431 0.7766 12.4427 0.777509 12.4426 0.777788L12.442 0.779393L12.4401 0.783843L12.4345 0.797644L12.4159 0.844359C12.4003 0.883798 12.3788 0.939648 12.3525 1.01035C12.3001 1.15165 12.2287 1.35293 12.1495 1.6017C11.9917 2.09737 11.7997 2.79102 11.6653 3.58034C11.4058 5.10487 11.3188 7.22742 12.3979 8.90964C13.477 10.5919 15.4425 11.3978 16.9364 11.7975C17.7099 12.0045 18.4204 12.1191 18.9368 12.1824C19.1959 12.2141 19.4086 12.2332 19.5589 12.2444C19.6341 12.25 19.6939 12.2537 19.7362 12.256L19.7864 12.2586L19.8013 12.2592L19.8061 12.2594L19.8085 12.2595L20.5035 12.2852L20.7697 11.6433L19.846 11.2602ZM19.8085 12.2595C19.8088 12.2595 19.8091 12.2595 19.846 11.2602L19.8085 12.2595ZM19.1628 10.1951C19.2995 9.76374 19.4626 9.16979 19.5759 8.50395C19.8147 7.10119 19.7913 5.61874 19.1315 4.59017C18.4717 3.56159 17.134 2.92226 15.7595 2.55444C15.107 2.37985 14.4991 2.28045 14.0501 2.22485C13.9134 2.6562 13.7503 3.25014 13.6369 3.91599C13.3981 5.31875 13.4215 6.80119 14.0813 7.82977C14.7411 8.85835 16.0788 9.49768 17.4534 9.86549C18.1059 10.0401 18.7137 10.1395 19.1628 10.1951ZM13.7007 15.5357L14.6626 15.2623C14.6625 15.262 14.6626 15.2623 13.7007 15.5357ZM6.09362 24.8165C6.01435 25.8133 6.01533 25.8134 6.01563 25.8134L6.01736 25.8136L6.02216 25.8139L6.03702 25.815L6.08721 25.8183C6.12952 25.8209 6.1893 25.8242 6.26465 25.8273C6.41524 25.8336 6.62872 25.8393 6.88978 25.8379C7.40997 25.835 8.12902 25.8035 8.92127 25.6876C10.4515 25.4639 12.4972 24.8914 13.7641 23.3457C15.0311 21.8 15.1909 19.6817 15.1099 18.1373C15.068 17.3377 14.9577 16.6265 14.8585 16.1159C14.8086 15.8596 14.7611 15.6514 14.7254 15.505C14.7076 15.4317 14.6926 15.3737 14.6817 15.3327L14.6687 15.2842L14.6647 15.2698L14.6634 15.2652L14.6626 15.2623L14.4726 14.5939L13.7799 14.5388L13.7007 15.5357C13.7799 14.5388 13.7789 14.5388 13.7786 14.5387L13.7769 14.5386L13.7721 14.5382L13.7572 14.5371L13.7071 14.5338C13.6648 14.5312 13.605 14.528 13.5296 14.5248C13.379 14.5186 13.1656 14.5128 12.9045 14.5143C12.3843 14.5172 11.6653 14.5487 10.873 14.6645C9.34281 14.8883 7.29708 15.4608 6.03014 17.0065C4.7632 18.5522 4.6034 20.6705 4.68435 22.2148C4.72626 23.0144 4.83656 23.7256 4.93581 24.2363C4.98563 24.4926 5.03315 24.7008 5.06885 24.8472C5.08672 24.9205 5.10167 24.9784 5.11252 25.0194L5.12561 25.068L5.12959 25.0823L5.13089 25.087L5.13155 25.0893L5.32168 25.7582L6.01435 25.8133L6.09362 24.8165ZM5.13155 25.0893C5.13164 25.0896 5.13171 25.0899 6.09362 24.8165L5.13155 25.0893ZM6.8958 23.8378C7.34828 23.8346 7.96356 23.8064 8.63188 23.7087C10.0398 23.5028 11.4427 23.0229 12.2173 22.0778C12.992 21.1327 13.1871 19.663 13.1127 18.242C13.0773 17.5675 12.9842 16.9587 12.8985 16.5144C12.446 16.5175 11.8307 16.5457 11.1624 16.6435C9.75442 16.8494 8.3516 17.3292 7.57694 18.2743C6.80228 19.2194 6.60712 20.6891 6.68161 22.1101C6.71696 22.7846 6.81006 23.3935 6.8958 23.8378ZM1 30C0.447715 30 0 30.4477 0 31C0 31.5523 0.447715 32 1 32L25 32C25.5523 32 26 31.5523 26 31C26 30.4477 25.5523 30 25 30L1 30Z" fill="current" stroke="transparent" />
</svg>
