<svg width="32" height="32" viewBox="0 0 32 32" fill="none" xmlns="http://www.w3.org/2000/svg">
<path fill-rule="evenodd" clip-rule="evenodd" d="M18.8984 15.3192C17.3681 18.1111 14.4039 20.0004 11 20.0003C6.02943 20.0002 2.0001 15.9706 2.00024 11.0001C2.00038 6.02949 6.02994 2.00017 11.0005 2.00031C14.7405 2.00041 17.95 4.28207 19.3085 7.53324C19.5214 8.04283 20.1071 8.28332 20.6167 8.07039C21.1263 7.85746 21.3668 7.27174 21.1538 6.76216C19.4953 2.79283 15.5752 0.000435297 11.0006 0.000305176C4.92542 0.000134436 0.000415622 4.92486 0.000244141 11C7.23723e-05 17.0751 4.9248 22.0001 10.9999 22.0003C15.1633 22.0004 18.785 19.6871 20.6522 16.2805C20.9177 15.7962 20.7403 15.1884 20.256 14.9229C19.7717 14.6575 19.1639 14.8349 18.8984 15.3192ZM13.1017 16.6813C14.6319 13.8894 17.596 12 20.9999 12C25.9705 12 29.9999 16.0295 29.9999 21C29.9999 25.9706 25.9705 30 20.9999 30C17.2599 30 14.0504 27.7184 12.6918 24.4673C12.4789 23.9577 11.8932 23.7173 11.3836 23.9302C10.874 24.1431 10.6335 24.7289 10.8465 25.2385C12.5052 29.2077 16.4253 32 20.9999 32C27.0751 32 31.9999 27.0751 31.9999 21C31.9999 14.9249 27.0751 10 20.9999 10C16.8366 10 13.2149 12.3134 11.3478 15.7201C11.0824 16.2044 11.2598 16.8122 11.7441 17.0776C12.2284 17.3431 12.8362 17.1657 13.1017 16.6813Z" fill="current" stroke="transparent" />
</svg>
