<svg width="32" height="32" viewBox="0 0 32 32" fill="none" xmlns="http://www.w3.org/2000/svg">
<path d="M20.2204 14.5316C19.8265 15.8357 19.1136 17.064 18.0818 18.0938C14.7487 21.4203 9.34987 21.415 6.02329 18.0818C2.69671 14.7487 2.70205 9.34988 6.03522 6.0233C9.36838 2.69672 14.7672 2.70206 18.0937 6.03523C18.7508 6.69355 19.2778 7.43245 19.6749 8.22006" fill="transparent" stroke="current" stroke-width="1.5" stroke-linecap="round"/>
<path d="M11.8063 17.0303C12.2174 15.8612 12.8908 14.764 13.8266 13.8301C17.1598 10.5035 22.5586 10.5088 25.8851 13.842C29.2117 17.1752 29.2064 22.5739 25.8732 25.9005C22.54 29.2271 17.1413 29.2218 13.8147 25.8886C13.1774 25.2501 12.6624 24.5357 12.2697 23.7746" fill="transparent" stroke="current" stroke-width="1.5" stroke-linecap="round"/>
</svg>
