<svg width="40" height="40" viewBox="0 0 40 40" fill="none" xmlns="http://www.w3.org/2000/svg">
<path fill-rule="evenodd" clip-rule="evenodd" d="M22.9415 23.2632L18.8567 23.9924C17.7679 24.1867 16.7198 23.4866 16.4825 22.4063V22.4063C16.2519 21.3567 16.8669 20.3062 17.895 19.9933L26.1691 17.4759C27.1676 17.1721 28.2498 17.5206 28.8834 18.35L28.9755 18.4705L30.4538 19.9638C30.8291 20.3429 31.3157 20.592 31.8427 20.6747L34.543 21.0987C35.9401 21.3181 36.8773 22.6518 36.6102 24.0406L35.9887 27.272C35.7624 28.449 34.7324 29.2998 33.5337 29.2998L28.3082 29.2998C27.9793 29.2998 27.6537 29.3647 27.3499 29.4908L21.4304 31.9474C20.5887 32.2967 19.6395 32.2475 18.8405 31.8093C16.018 30.2612 9.05665 26.4499 4.29906 23.9048C3.33875 23.3911 2.92905 22.229 3.35809 21.228V21.228C3.7793 20.2452 4.87387 19.7383 5.89583 20.0528L17.0988 23.4996" fill="current" stroke="transparent" stroke-width="2" stroke-linecap="round"/>
<path fill-rule="evenodd" clip-rule="evenodd" d="M18 12L18 5" fill="current" stroke="transparent" stroke-width="2" stroke-linecap="round"/>
<path fill-rule="evenodd" clip-rule="evenodd" d="M14 10L17.2929 13.2929C17.6834 13.6834 18.3166 13.6834 18.7071 13.2929L22 10" fill="current" stroke="transparent" stroke-width="2" stroke-linecap="round"/>
</svg>
