<svg width="36" height="30" viewBox="0 0 36 30" fill="none" xmlns="http://www.w3.org/2000/svg">
<path fill-rule="evenodd" clip-rule="evenodd" d="M15.0001 7.58579L12.7072 5.29289C12.3167 4.90237 11.6835 4.90237 11.293 5.29289C10.9025 5.68342 10.9025 6.31658 11.293 6.70711L14.5859 10C15.3669 10.781 16.6333 10.781 17.4143 10L20.7072 6.70711C21.0977 6.31658 21.0977 5.68342 20.7072 5.29289C20.3167 4.90237 19.6835 4.90237 19.293 5.29289L17.0001 7.58579V1C17.0001 0.447715 16.5524 0 16.0001 0C15.4478 0 15.0001 0.447715 15.0001 1L15.0001 7.58579ZM4.18979 15.0971C2.67927 14.6323 1.06143 15.3816 0.438849 16.8342C-0.1953 18.3138 0.410997 20.029 1.82726 20.7866C6.57957 23.329 13.5366 27.1378 16.3595 28.6862C17.4262 29.2713 18.6934 29.336 19.8136 28.8711L25.7331 26.4145C25.9154 26.3388 26.1108 26.2999 26.3081 26.2999L31.5336 26.2999C33.2118 26.2999 34.6537 25.1089 34.9706 23.4609L35.5921 20.2296C35.966 18.2852 34.654 16.418 32.698 16.1109L29.9977 15.6869C29.6815 15.6373 29.3895 15.4878 29.1643 15.2604L27.7311 13.8126L27.678 13.7431C26.7909 12.5819 25.2759 12.094 23.8779 12.5193L15.6038 15.0368C14.2996 15.4336 13.443 16.6295 13.434 17.9413L4.18979 15.0971ZM14.6541 20.4092C15.3108 20.9033 16.1628 21.1321 17.0323 20.9769L21.1171 20.2477C21.6608 20.1507 22.0228 19.6312 21.9258 19.0875C21.8287 18.5439 21.3093 18.1818 20.7656 18.2788L16.6809 19.008C16.1205 19.108 15.5812 18.7478 15.4591 18.1919C15.3404 17.6517 15.6569 17.1111 16.186 16.9502L24.4601 14.4327C25.0592 14.2505 25.7085 14.4596 26.0887 14.9572L26.2196 15.1286L27.743 16.6675C28.2684 17.1982 28.9497 17.5469 29.6875 17.6627L32.3877 18.0867C33.226 18.2183 33.7883 19.0185 33.6281 19.8518L33.0066 23.0832C32.8708 23.7895 32.2528 24.2999 31.5336 24.2999L26.3081 24.2999C25.8477 24.2999 25.3918 24.3908 24.9665 24.5672L19.047 27.0239C18.4838 27.2576 17.8526 27.224 17.3213 26.9326C14.4992 25.3847 7.53351 21.5711 2.77066 19.0231C2.26628 18.7533 2.05319 18.1445 2.27712 17.6221C2.49697 17.1091 3.06826 16.8446 3.60165 17.0087L14.6541 20.4092Z" fill="current"/>
</svg>
