<svg width="34" height="34" viewBox="0 0 34 34" fill="none" xmlns="http://www.w3.org/2000/svg">
<path d="M14.1344 2.79624L13.4485 2.49282V2.49282L14.1344 2.79624ZM19.652 2.79625L20.3379 2.49282V2.49282L19.652 2.79625ZM13.7072 3.76174L13.0214 3.45831L13.7072 3.76174ZM9.86065 5.35505L10.1311 4.6555L9.86065 5.35505ZM8.87592 4.97436L8.60549 5.67391L8.87592 4.97436ZM4.97436 8.87592L5.67391 8.60549L4.97436 8.87592ZM5.35504 9.86065L4.6555 10.1311L5.35504 9.86065ZM3.76174 13.7072L4.06517 14.3931H4.06517L3.76174 13.7072ZM2.79625 14.1344L2.49282 13.4485H2.49282L2.79625 14.1344ZM2.79624 19.652L2.49282 20.3379H2.49282L2.79624 19.652ZM3.76174 20.0791L4.06517 19.3932L4.06516 19.3932L3.76174 20.0791ZM5.35505 23.9257L4.6555 23.6553L5.35505 23.9257ZM4.97436 24.9104L4.27482 24.64L4.97436 24.9104ZM8.87592 28.812L9.14635 29.5115H9.14635L8.87592 28.812ZM9.86065 28.4313L9.59022 27.7318H9.59022L9.86065 28.4313ZM13.7072 30.0246L14.3931 29.7212L13.7072 30.0246ZM14.1344 30.9901L13.4485 31.2935L14.1344 30.9901ZM19.652 30.9901L20.3379 31.2935L19.652 30.9901ZM20.0791 30.0246L19.3932 29.7212H19.3932L20.0791 30.0246ZM23.9257 28.4313L23.6553 29.1309L23.9257 28.4313ZM24.9104 28.812L25.1809 28.1125L24.9104 28.812ZM28.812 24.9104L29.5115 24.64L28.812 24.9104ZM28.4313 23.9257L27.7318 24.1961V24.1962L28.4313 23.9257ZM30.0246 20.0791L29.7212 19.3932V19.3932L30.0246 20.0791ZM30.9901 19.652L31.2935 20.3379L30.9901 19.652ZM30.9901 14.1344L30.6867 14.8202L30.9901 14.1344ZM30.0246 13.7072L30.3281 13.0214L30.0246 13.7072ZM28.4313 9.86065L29.1309 10.1311L28.4313 9.86065ZM28.812 8.87592L28.1125 8.60549V8.60549L28.812 8.87592ZM24.9104 4.97436L24.64 4.27482L24.9104 4.97436ZM23.9257 5.35504L24.1961 6.05459L23.9257 5.35504ZM20.0791 3.76174L19.3932 4.06517L19.3932 4.06517L20.0791 3.76174ZM14.8202 3.09967C15.6164 1.30011 18.17 1.30011 18.9661 3.09968L20.3379 2.49282C19.0149 -0.497602 14.7714 -0.497609 13.4485 2.49282L14.8202 3.09967ZM14.3931 4.06516L14.8202 3.09967L13.4485 2.49282L13.0214 3.45831L14.3931 4.06516ZM9.59022 6.05459C11.4656 6.77957 13.5797 5.90387 14.3931 4.06516L13.0214 3.45831C12.5319 4.5648 11.2596 5.09177 10.1311 4.6555L9.59022 6.05459ZM8.60549 5.67391L9.59022 6.05459L10.1311 4.6555L9.14636 4.27482L8.60549 5.67391ZM5.67391 8.60549C4.96436 6.77006 6.77006 4.96436 8.60549 5.67391L9.14636 4.27482C6.09635 3.09573 3.09573 6.09634 4.27482 9.14635L5.67391 8.60549ZM6.05459 9.59022L5.67391 8.60549L4.27482 9.14635L4.6555 10.1311L6.05459 9.59022ZM4.06517 14.3931C5.90387 13.5797 6.77957 11.4656 6.05459 9.59022L4.6555 10.1311C5.09177 11.2596 4.5648 12.5319 3.45831 13.0214L4.06517 14.3931ZM3.09968 14.8202L4.06517 14.3931L3.45831 13.0214L2.49282 13.4485L3.09968 14.8202ZM3.09967 18.9661C1.30011 18.17 1.30011 15.6164 3.09968 14.8202L2.49282 13.4485C-0.497602 14.7714 -0.49761 19.0149 2.49282 20.3379L3.09967 18.9661ZM4.06516 19.3932L3.09967 18.9661L2.49282 20.3379L3.45831 20.765L4.06516 19.3932ZM6.05459 24.1961C6.77957 22.3208 5.90387 20.2067 4.06517 19.3932L3.45831 20.765C4.5648 21.2545 5.09177 22.5267 4.6555 23.6553L6.05459 24.1961ZM5.67391 25.1809L6.05459 24.1961L4.6555 23.6553L4.27482 24.64L5.67391 25.1809ZM8.60549 28.1125C6.77006 28.822 4.96436 27.0163 5.67391 25.1809L4.27482 24.64C3.09573 27.69 6.09634 30.6906 9.14635 29.5115L8.60549 28.1125ZM9.59022 27.7318L8.60549 28.1125L9.14635 29.5115L10.1311 29.1309L9.59022 27.7318ZM14.3931 29.7212C13.5797 27.8825 11.4656 27.0068 9.59022 27.7318L10.1311 29.1309C11.2596 28.6946 12.5319 29.2216 13.0214 30.3281L14.3931 29.7212ZM14.8202 30.6867L14.3931 29.7212L13.0214 30.3281L13.4485 31.2935L14.8202 30.6867ZM18.9661 30.6867C18.17 32.4863 15.6164 32.4863 14.8202 30.6867L13.4485 31.2935C14.7714 34.284 19.0149 34.284 20.3379 31.2935L18.9661 30.6867ZM19.3932 29.7212L18.9661 30.6867L20.3379 31.2935L20.765 30.3281L19.3932 29.7212ZM24.1961 27.7318C22.3208 27.0068 20.2067 27.8825 19.3932 29.7212L20.765 30.3281C21.2545 29.2216 22.5267 28.6946 23.6553 29.1309L24.1961 27.7318ZM25.1809 28.1125L24.1961 27.7318L23.6553 29.1309L24.64 29.5115L25.1809 28.1125ZM28.1125 25.1809C28.822 27.0163 27.0163 28.822 25.1809 28.1125L24.64 29.5115C27.69 30.6906 30.6906 27.69 29.5115 24.64L28.1125 25.1809ZM27.7318 24.1962L28.1125 25.1809L29.5115 24.64L29.1309 23.6553L27.7318 24.1962ZM29.7212 19.3932C27.8825 20.2067 27.0068 22.3208 27.7318 24.1961L29.1309 23.6553C28.6946 22.5267 29.2216 21.2545 30.3281 20.765L29.7212 19.3932ZM30.6867 18.9661L29.7212 19.3932L30.3281 20.765L31.2935 20.3379L30.6867 18.9661ZM30.6867 14.8202C32.4863 15.6164 32.4863 18.17 30.6867 18.9661L31.2935 20.3379C34.284 19.0149 34.284 14.7714 31.2935 13.4485L30.6867 14.8202ZM29.7212 14.3931L30.6867 14.8202L31.2935 13.4485L30.3281 13.0214L29.7212 14.3931ZM27.7318 9.59022C27.0068 11.4656 27.8825 13.5797 29.7212 14.3931L30.3281 13.0214C29.2216 12.5319 28.6946 11.2596 29.1309 10.1311L27.7318 9.59022ZM28.1125 8.60549L27.7318 9.59022L29.1309 10.1311L29.5115 9.14636L28.1125 8.60549ZM25.1809 5.67391C27.0163 4.96436 28.822 6.77006 28.1125 8.60549L29.5115 9.14636C30.6906 6.09635 27.69 3.09573 24.64 4.27482L25.1809 5.67391ZM24.1961 6.05459L25.1809 5.67391L24.64 4.27482L23.6553 4.6555L24.1961 6.05459ZM19.3932 4.06517C20.2067 5.90387 22.3208 6.77957 24.1961 6.05459L23.6553 4.6555C22.5267 5.09177 21.2545 4.5648 20.765 3.45831L19.3932 4.06517ZM18.9661 3.09968L19.3932 4.06517L20.765 3.45831L20.3379 2.49282L18.9661 3.09968ZM21.3875 16.9392C21.3875 19.4467 19.3547 21.4795 16.8472 21.4795V22.9795C20.1831 22.9795 22.8875 20.2751 22.8875 16.9392H21.3875ZM16.8472 12.3989C19.3547 12.3989 21.3875 14.4317 21.3875 16.9392H22.8875C22.8875 13.6032 20.1831 10.8989 16.8472 10.8989V12.3989ZM12.3069 16.9392C12.3069 14.4317 14.3397 12.3989 16.8472 12.3989V10.8989C13.5112 10.8989 10.8069 13.6032 10.8069 16.9392H12.3069ZM16.8472 21.4795C14.3397 21.4795 12.3069 19.4467 12.3069 16.9392H10.8069C10.8069 20.2751 13.5112 22.9795 16.8472 22.9795V21.4795Z" fill="current"/>
</svg>
