<svg width="32" height="32" viewBox="0 0 32 32" fill="none" xmlns="http://www.w3.org/2000/svg">
<path fill-rule="evenodd" clip-rule="evenodd" d="M18.1141 20.7571C18.0354 20.806 17.9425 20.8454 17.852 20.8667C14.2952 21.7103 12.1163 19.8221 11.3326 17.9488C10.548 16.0754 10.7298 13.1953 13.8239 11.2439C13.901 11.1943 13.9938 11.1556 14.0836 11.1343C14.6863 10.9909 15.2474 10.9262 15.7707 10.9262C18.3391 10.9262 19.9546 12.4936 20.6062 14.0508C21.3915 15.9256 21.2097 18.8066 18.1141 20.7571ZM31.1523 18.7039L29.5777 17.2918C29.4109 17.142 29.3149 16.9284 29.3149 16.7044V15.1615C29.3149 14.9399 29.4085 14.7279 29.5722 14.5788L31.1279 13.1589C31.8636 12.4864 32.0997 11.4165 31.7141 10.4956L30.9209 8.60175C30.5369 7.68165 29.6194 7.10295 28.6137 7.15499L26.4505 7.27562C26.2231 7.29138 25.9784 7.19362 25.8179 7.01228L24.7855 5.84855C24.6493 5.69402 24.5785 5.49454 24.5879 5.28798L24.6832 3.25147C24.7288 2.2541 24.1402 1.33006 23.2179 0.952402L21.3207 0.175004C20.3969 -0.201865 19.3323 0.0425486 18.6681 0.786827L17.258 2.36606C17.1093 2.53242 16.896 2.62781 16.6725 2.62781H15.1326C14.9114 2.62781 14.699 2.53399 14.5511 2.37079L13.1338 0.812059C12.4634 0.0740878 11.3948 -0.161658 10.4757 0.223885L8.58479 1.01863C7.66648 1.40496 7.08653 2.33373 7.1424 3.3311L7.25885 5.44567C7.27144 5.66958 7.18804 5.88798 7.02988 6.04645L5.94003 7.13764C5.78422 7.29453 5.56861 7.38599 5.34749 7.36786L3.2449 7.2693C2.25262 7.22515 1.32879 7.81332 0.951076 8.73736L0.175201 10.6383C-0.20251 11.5623 0.0437965 12.6306 0.785842 13.2961L2.3612 14.7081C2.52803 14.8572 2.62325 15.0716 2.62325 15.2955V16.8393C2.62325 17.06 2.52961 17.2721 2.36593 17.4219L0.811013 18.8419C0.0744763 19.5136 -0.161596 20.5843 0.223984 21.5044L1.01718 23.3982C1.40276 24.3191 2.3203 24.8994 3.32517 24.845L5.43483 24.7275C5.66932 24.7189 5.87785 24.7993 6.03523 24.9569L7.12352 26.0481C7.28011 26.2042 7.36432 26.4211 7.3533 26.6426L7.25571 28.7485C7.20928 29.7459 7.79788 30.6699 8.72013 31.0476L10.6174 31.825C10.9069 31.9432 11.2091 32 11.5089 32C12.1683 32 12.8144 31.724 13.2708 31.2124L14.6801 29.6347C14.8288 29.4683 15.0429 29.3722 15.2663 29.3722H16.8063C17.0274 29.3722 17.2399 29.466 17.3878 29.6292L18.805 31.1879C19.4755 31.9251 20.5456 32.1616 21.4632 31.7761L23.3533 30.9814C24.2724 30.5942 24.8523 29.6654 24.7973 28.6681L24.68 26.5559C24.6674 26.332 24.7508 26.112 24.9098 25.9535L25.9988 24.8615C26.1547 24.7054 26.3734 24.6148 26.5914 24.6321L28.6924 24.7299C29.6878 24.7733 30.6109 24.1875 30.9878 23.2626L31.7637 21.3617C32.1406 20.4377 31.8951 19.3694 31.1523 18.7039ZM30.3064 20.7649L29.5313 22.6658C29.4054 22.9741 29.0859 23.1822 28.7664 23.1546L26.6646 23.0568C26.0091 23.0308 25.3536 23.2776 24.8854 23.7475L23.7971 24.8387C23.3226 25.3141 23.0724 25.9709 23.1094 26.6426L23.2266 28.7556C23.2447 29.0883 23.0511 29.3982 22.745 29.5267L20.8541 30.3214C20.5488 30.4491 20.1916 30.3711 19.9681 30.1259L18.5516 28.5672C18.1055 28.0768 17.4697 27.7953 16.8063 27.7953H15.2663C14.5959 27.7953 13.9554 28.0823 13.5068 28.5829L12.0967 30.1614C11.8764 30.4089 11.5215 30.4917 11.2138 30.3648L9.31661 29.5874C9.00893 29.462 8.81298 29.1538 8.82793 28.821L8.92552 26.7159C8.95621 26.0529 8.70597 25.4032 8.23698 24.9333L7.14791 23.8421C6.70489 23.3982 6.10212 23.1491 5.47732 23.1491C5.43483 23.1491 5.39077 23.1507 5.34749 23.153L3.23781 23.2705C2.88843 23.2902 2.59649 23.0955 2.46822 22.7888L1.67502 20.895C1.54676 20.5875 1.62623 20.2311 1.87096 20.0072L3.42666 18.5872C3.91611 18.1394 4.19705 17.5023 4.19705 16.8393V15.2955C4.19705 14.6222 3.90982 13.9804 3.41014 13.5326L1.83555 12.1213C1.58847 11.899 1.50584 11.5434 1.63253 11.2351L2.40843 9.33341C2.53354 9.02592 2.86955 8.82409 3.17251 8.84459L5.2743 8.94314C5.94945 8.96995 6.58448 8.72159 7.05268 8.25247L8.14255 7.16128C8.61784 6.68586 8.86807 6.02831 8.82951 5.35736L8.71306 3.24358C8.69417 2.91087 8.88774 2.60179 9.19385 2.47328L11.084 1.67854C11.3885 1.54924 11.745 1.62809 11.97 1.87408L13.3872 3.43281C13.8326 3.92321 14.4692 4.20467 15.1326 4.20467H16.6725C17.3438 4.20467 17.9851 3.91689 18.4312 3.41703L19.8406 1.8386C20.0601 1.59103 20.4182 1.50666 20.7243 1.63439L22.6215 2.41179C22.93 2.53794 23.1259 2.84542 23.1101 3.17813L23.0157 5.21465C22.9866 5.83436 23.1983 6.4312 23.6098 6.89559L24.6422 8.05931C25.123 8.60254 25.8194 8.88559 26.5379 8.85011L28.7011 8.72948C29.0449 8.70819 29.3416 8.9053 29.4707 9.21121L30.2631 11.1058C30.3913 11.4125 30.3126 11.7689 30.0671 11.9936L28.5122 13.4128C28.0228 13.8606 27.7411 14.4976 27.7411 15.1615V16.7044C27.7411 17.3762 28.0275 18.0188 28.5279 18.4666L30.1025 19.8787C30.3504 20.101 30.4323 20.4566 30.3064 20.7649ZM13.7208 9.60006C13.4635 9.66077 13.2093 9.76799 12.9843 9.90912C9.31023 12.2271 8.77829 15.924 9.88073 18.559C10.7983 20.7508 13.0307 22.6478 16.1877 22.6478C16.8259 22.6478 17.5034 22.5697 18.2148 22.401C18.4721 22.3403 18.7263 22.2339 18.9505 22.0927C22.6285 19.7747 23.1612 16.077 22.058 13.4405C20.954 10.8048 17.9504 8.5956 13.7208 9.60006Z"/>
</svg>
