<svg width="30" height="30" viewBox="0 0 30 30" fill="none" xmlns="http://www.w3.org/2000/svg">
<path fill-rule="evenodd" clip-rule="evenodd" d="M17.7542 1.85557C16.7116 -0.558668 13.2883 -0.558669 12.2458 1.85557L11.8307 2.81686C11.5918 3.37012 10.9214 3.58794 10.4029 3.28077L9.50206 2.74707C7.23959 1.40668 4.47007 3.41886 5.0457 5.9848L5.27491 7.00649C5.40682 7.59452 4.99251 8.16477 4.3925 8.22102L3.34998 8.31876C0.731746 8.56422 -0.326117 11.82 1.6478 13.5575L2.43377 14.2494C2.88613 14.6476 2.88613 15.3524 2.43377 15.7506L1.6478 16.4425C-0.326117 18.18 0.731745 21.4358 3.34998 21.6812L4.3925 21.779C4.99251 21.8352 5.40682 22.4055 5.27491 22.9935L5.0457 24.0152C4.47007 26.5811 7.23959 28.5933 9.50206 27.2529L10.4029 26.7192C10.9214 26.412 11.5918 26.6299 11.8307 27.1831L12.2458 28.1444C13.2883 30.5586 16.7116 30.5586 17.7542 28.1444L18.1693 27.1831C18.4082 26.6299 19.0786 26.412 19.597 26.7192L20.4979 27.2529C22.7604 28.5933 25.5299 26.5811 24.9543 24.0152L24.7251 22.9935C24.5931 22.4055 25.0074 21.8352 25.6075 21.779L26.65 21.6812C29.2682 21.4358 30.3261 18.18 28.3522 16.4425L27.5662 15.7506C27.1138 15.3524 27.1138 14.6476 27.5662 14.2494L28.3522 13.5575C30.3261 11.82 29.2682 8.56422 26.65 8.31876L25.6075 8.22102C25.0074 8.16477 24.5931 7.59452 24.7251 7.00649L24.9543 5.9848C25.5299 3.41886 22.7604 1.40668 20.4979 2.74707L19.597 3.28077C19.0786 3.58794 18.4082 3.37012 18.1693 2.81686L17.7542 1.85557ZM14.0819 2.64845C14.4294 1.8437 15.5705 1.8437 15.918 2.64845L16.3331 3.60974C17.0499 5.26953 19.061 5.92298 20.6164 5.00147L21.5173 4.46776C22.2715 4.02097 23.1946 4.69169 23.0028 5.54701L22.7736 6.5687C22.3778 8.33278 23.6207 10.0435 25.4208 10.2123L26.4633 10.31C27.336 10.3918 27.6887 11.4771 27.0307 12.0563L26.2447 12.7481C24.8877 13.9427 24.8877 16.0573 26.2447 17.2519L27.0307 17.9437C27.6887 18.5229 27.336 19.6081 26.4633 19.69L25.4208 19.7877C23.6207 19.9564 22.3778 21.6672 22.7736 23.4313L23.0028 24.453C23.1946 25.3083 22.2715 25.979 21.5173 25.5322L20.6164 24.9985C19.061 24.077 17.0499 24.7305 16.3331 26.3902L15.918 27.3515C15.5705 28.1563 14.4294 28.1563 14.0819 27.3515L13.6668 26.3902C12.9501 24.7305 10.939 24.077 9.38351 24.9985L8.48265 25.5322C7.72849 25.979 6.80532 25.3083 6.9972 24.453L7.2264 23.4313C7.62215 21.6672 6.37921 19.9564 4.57918 19.7877L3.53666 19.69C2.66392 19.6081 2.3113 18.5229 2.96927 17.9437L3.75524 17.2519C5.1123 16.0573 5.1123 13.9427 3.75524 12.7481L2.96927 12.0563C2.3113 11.4771 2.66392 10.3918 3.53666 10.31L4.57918 10.2123C6.37921 10.0435 7.62215 8.33278 7.2264 6.5687L6.9972 5.54701C6.80532 4.69169 7.72849 4.02097 8.48265 4.46776L9.38351 5.00147C10.939 5.92298 12.9501 5.26953 13.6668 3.60974L14.0819 2.64845ZM11 15C11 12.7909 12.7909 11 15 11C17.2091 11 19 12.7909 19 15C19 17.2091 17.2091 19 15 19C12.7909 19 11 17.2091 11 15ZM15 9C11.6863 9 9 11.6863 9 15C9 18.3137 11.6863 21 15 21C18.3137 21 21 18.3137 21 15C21 11.6863 18.3137 9 15 9Z" fill="current" stroke="transparent" />
</svg>
